<?xml version="1.0" encoding="utf-8" standalone="no"?>
<!DOCTYPE svg PUBLIC "-//W3C//DTD SVG 1.1//EN"
  "http://www.w3.org/Graphics/SVG/1.1/DTD/svg11.dtd">
<!-- Created with matplotlib (https://matplotlib.org/) -->
<svg height="432pt" version="1.1" viewBox="0 0 864 432" width="864pt" xmlns="http://www.w3.org/2000/svg" xmlns:xlink="http://www.w3.org/1999/xlink">
 <metadata>
  <rdf:RDF xmlns:cc="http://creativecommons.org/ns#" xmlns:dc="http://purl.org/dc/elements/1.1/" xmlns:rdf="http://www.w3.org/1999/02/22-rdf-syntax-ns#">
   <cc:Work>
    <dc:type rdf:resource="http://purl.org/dc/dcmitype/StillImage"/>
    <dc:date>2021-06-22T20:25:17.998106</dc:date>
    <dc:format>image/svg+xml</dc:format>
    <dc:creator>
     <cc:Agent>
      <dc:title>Matplotlib v3.3.0, https://matplotlib.org/</dc:title>
     </cc:Agent>
    </dc:creator>
   </cc:Work>
  </rdf:RDF>
 </metadata>
 <defs>
  <style type="text/css">*{stroke-linecap:butt;stroke-linejoin:round;}</style>
 </defs>
 <g id="figure_1">
  <g id="patch_1">
   <path d="M 0 432 
L 864 432 
L 864 0 
L 0 0 
z
" style="fill:#ffffff;"/>
  </g>
  <g id="axes_1">
   <g id="patch_2">
    <path d="M 575.856 218.16 
C 575.856 195.530306 570.082833 173.270328 559.08451 153.49307 
C 548.086187 133.715812 532.222082 117.0675 512.998077 105.12846 
C 493.774073 93.189419 471.818318 86.34976 449.21494 85.25873 
C 426.611562 84.167699 404.099131 88.860948 383.814617 98.892973 
C 363.530103 108.924998 346.136307 123.968001 333.284316 142.594042 
C 320.432325 161.220082 312.542081 182.820548 310.362558 205.34504 
C 308.183035 227.869531 311.785449 250.582055 320.827845 271.326648 
C 329.87024 292.07124 344.057154 310.170068 362.04191 323.905118 
L 442.8 218.16 
L 575.856 218.16 
z
" style="fill:#1f77b4;"/>
   </g>
   <g id="patch_3">
    <path d="M 362.04191 323.905118 
C 379.948164 337.580216 401.037921 346.485641 423.326218 349.783216 
C 445.614516 353.080791 468.379449 350.66371 489.478386 342.759468 
C 510.577324 334.855226 529.326884 321.719837 543.962361 304.5896 
C 558.597839 287.459364 568.6452 266.889119 573.158789 244.814932 
L 442.8 218.16 
L 362.04191 323.905118 
z
" style="fill:#ff7f0e;"/>
   </g>
   <g id="patch_4">
    <path d="M 573.158789 244.814932 
C 573.704235 242.147368 574.167672 239.46369 574.548446 236.767689 
C 574.92922 234.071688 575.22715 231.364634 575.441817 228.650352 
L 442.8 218.16 
L 573.158789 244.814932 
z
" style="fill:#2ca02c;"/>
   </g>
   <g id="patch_5">
    <path d="M 575.441817 228.650352 
C 575.564477 227.099416 575.659926 225.546447 575.72812 223.992163 
C 575.796313 222.437879 575.837241 220.882519 575.850884 219.326799 
L 442.8 218.16 
L 575.441817 228.650352 
z
" style="fill:#d62728;"/>
   </g>
   <g id="patch_6">
    <path d="M 575.850884 219.326799 
C 575.852589 219.132339 575.853868 218.937875 575.854721 218.74341 
C 575.855574 218.548944 575.856 218.354477 575.856 218.160009 
L 442.8 218.16 
L 575.850884 219.326799 
z
" style="fill:#9467bd;"/>
   </g>
   <g id="matplotlib.axis_1"/>
   <g id="matplotlib.axis_2"/>
   <g id="text_1">
    <!-- 本科 -->
    <g transform="translate(357.916079 90.267051)scale(0.1 -0.1)">
     <defs>
      <path d="M 46.09375 61.328125 
L 46.09375 69.140625 
Q 46.09375 75.390625 45.703125 80.859375 
L 54.296875 80.859375 
Q 53.90625 76.5625 53.90625 69.53125 
L 53.90625 61.328125 
L 75.78125 61.328125 
Q 82.421875 61.328125 91.40625 61.71875 
L 91.40625 54.296875 
Q 82.8125 54.6875 76.171875 54.6875 
L 60.15625 54.6875 
Q 65.625 36.71875 75.96875 26.359375 
Q 86.328125 16.015625 94.921875 12.5 
Q 91.40625 9.765625 88.28125 5.078125 
Q 75 14.0625 66.59375 25.578125 
Q 58.203125 37.109375 53.90625 52.34375 
L 53.90625 15.625 
L 58.984375 15.625 
Q 65.234375 15.625 71.875 16.015625 
L 71.875 8.59375 
Q 65.234375 8.984375 58.59375 8.984375 
L 53.90625 8.984375 
Q 53.90625 0 54.296875 -9.375 
L 45.703125 -9.375 
Q 46.09375 0 46.09375 8.984375 
L 41.015625 8.984375 
Q 34.765625 8.984375 28.515625 8.59375 
L 28.515625 16.015625 
Q 34.765625 15.625 41.015625 15.625 
L 46.09375 15.625 
L 46.09375 51.5625 
Q 39.84375 35.546875 32.21875 24.609375 
Q 24.609375 13.671875 11.71875 2.734375 
Q 8.59375 7.03125 4.296875 8.984375 
Q 17.1875 16.796875 25.78125 28.515625 
Q 34.375 40.234375 39.453125 54.6875 
L 22.265625 54.6875 
Q 16.015625 54.6875 8.984375 54.296875 
L 8.984375 61.71875 
Q 16.015625 61.328125 21.875 61.328125 
z
" id="SimHei-26412"/>
      <path d="M 45.3125 44.53125 
Q 42.578125 44.921875 34.765625 44.921875 
L 30.859375 44.921875 
L 30.859375 3.125 
Q 30.859375 -1.953125 31.25 -10.15625 
L 23.046875 -10.15625 
Q 23.4375 -1.953125 23.4375 3.125 
L 23.4375 28.90625 
Q 20.703125 22.65625 17.96875 17.578125 
Q 15.234375 12.5 10.15625 5.078125 
Q 7.421875 8.203125 4.296875 11.328125 
Q 11.328125 19.53125 15.421875 27.34375 
Q 19.53125 35.15625 22.65625 44.921875 
L 19.921875 44.921875 
Q 12.890625 44.921875 6.25 44.53125 
L 6.25 51.953125 
Q 12.890625 51.5625 19.921875 51.5625 
L 23.4375 51.5625 
L 23.4375 67.1875 
Q 18.75 66.40625 10.546875 64.453125 
Q 8.984375 67.96875 6.640625 71.09375 
Q 10.15625 71.484375 18.75 73.234375 
Q 27.34375 75 32.03125 76.171875 
Q 36.71875 77.34375 40.234375 79.296875 
Q 42.1875 75.390625 44.921875 71.875 
Q 41.40625 71.484375 37.6875 70.5 
Q 33.984375 69.53125 30.859375 69.140625 
L 30.859375 51.5625 
L 35.15625 51.5625 
Q 42.578125 51.5625 45.3125 51.953125 
z
M 74.21875 69.140625 
Q 74.21875 76.953125 73.828125 80.078125 
L 82.421875 80.078125 
Q 82.03125 77.34375 82.03125 70.703125 
L 82.03125 26.953125 
Q 92.1875 28.90625 94.921875 29.6875 
L 96.09375 22.65625 
Q 90.234375 21.875 82.03125 19.921875 
L 82.03125 5.078125 
Q 82.03125 -2.734375 82.421875 -10.15625 
L 73.828125 -10.15625 
Q 74.21875 -2.734375 74.21875 5.078125 
L 74.21875 18.359375 
Q 65.234375 16.796875 58.390625 15.421875 
Q 51.5625 14.0625 44.140625 11.71875 
L 41.40625 19.53125 
Q 53.125 21.484375 74.21875 25.390625 
z
M 53.125 48.828125 
Q 57.03125 45.3125 60.546875 42.1875 
Q 64.0625 39.0625 69.53125 33.203125 
Q 66.015625 30.46875 63.28125 27.734375 
Q 56.25 36.71875 48.4375 43.75 
Q 50.78125 46.09375 53.125 48.828125 
z
M 57.03125 72.265625 
Q 58.59375 70.703125 62.109375 66.796875 
Q 65.625 62.890625 71.484375 55.46875 
Q 67.578125 53.125 64.84375 50.78125 
Q 59.765625 58.203125 56.640625 61.71875 
Q 53.515625 65.234375 51.5625 67.578125 
Q 54.6875 69.53125 57.03125 72.265625 
z
M 37.5 40.625 
Q 39.453125 38.28125 42.578125 35.15625 
Q 45.703125 32.03125 49.21875 28.125 
Q 46.484375 26.171875 42.96875 22.65625 
Q 39.0625 28.90625 32.421875 35.546875 
Q 35.15625 37.109375 37.5 40.625 
z
" id="SimHei-31185"/>
     </defs>
     <use xlink:href="#SimHei-26412"/>
     <use x="100" xlink:href="#SimHei-31185"/>
    </g>
   </g>
   <g id="text_2">
    <!-- 64.62% -->
    <g transform="translate(392.40877 149.412284)scale(0.1 -0.1)">
     <defs>
      <path d="M 3.515625 19.53125 
Q 4.296875 30.859375 6.046875 34.765625 
Q 7.8125 38.671875 11.328125 44.53125 
L 27.34375 69.53125 
L 36.328125 69.53125 
L 19.921875 43.75 
Q 30.46875 46.484375 36.71875 42.96875 
Q 42.96875 39.453125 45.109375 34.953125 
Q 47.265625 30.46875 47.453125 25.1875 
Q 47.65625 19.921875 45.890625 14.84375 
Q 44.140625 9.765625 39.640625 5.65625 
Q 35.15625 1.5625 27.140625 1.171875 
Q 19.140625 0.78125 13.46875 4.09375 
Q 7.8125 7.421875 5.65625 13.46875 
Q 3.515625 19.53125 4.296875 30.859375 
z
M 12.5 16.015625 
Q 19.53125 8.59375 25.390625 8.203125 
Q 31.25 7.8125 35.15625 12.109375 
Q 39.0625 16.40625 39.0625 24.609375 
Q 39.0625 32.8125 34.171875 35.9375 
Q 29.296875 39.0625 23.234375 38.28125 
Q 17.1875 37.5 14.453125 32.421875 
Q 11.71875 27.34375 12.109375 21.671875 
Q 12.5 16.015625 19.53125 8.59375 
z
" id="SimHei-54"/>
      <path d="M 31.25 17.1875 
L 1.171875 17.1875 
L 1.171875 23.828125 
L 32.8125 69.53125 
L 38.671875 69.53125 
L 38.671875 23.828125 
L 48.046875 23.828125 
L 48.046875 17.1875 
L 38.671875 17.1875 
L 38.671875 2.34375 
L 31.25 2.34375 
z
M 31.25 23.828125 
L 31.25 54.6875 
L 9.375 23.828125 
z
" id="SimHei-52"/>
      <path d="M 16.796875 1.953125 
L 7.8125 1.953125 
L 7.8125 10.546875 
L 16.796875 10.546875 
z
" id="SimHei-46"/>
      <path d="M 4.6875 3.90625 
Q 5.078125 9.765625 10.15625 14.453125 
Q 15.234375 19.140625 23.046875 29.09375 
Q 30.859375 39.0625 33.203125 44.53125 
Q 35.546875 50 34.953125 53.90625 
Q 34.375 57.8125 31.25 60.34375 
Q 28.125 62.890625 24.015625 62.5 
Q 19.921875 62.109375 16.203125 59.375 
Q 12.5 56.640625 10.546875 51.171875 
L 3.125 52.34375 
Q 6.25 61.328125 11.125 65.421875 
Q 16.015625 69.53125 22.65625 69.921875 
Q 26.5625 70.3125 29.6875 69.71875 
Q 32.8125 69.140625 36.125 66.984375 
Q 39.453125 64.84375 41.59375 60.546875 
Q 43.75 56.25 43.15625 50.1875 
Q 42.578125 44.140625 37.109375 35.734375 
Q 31.640625 27.34375 16.015625 9.375 
L 44.140625 9.375 
L 44.140625 2.34375 
L 4.6875 2.34375 
z
" id="SimHei-50"/>
      <path d="M 21.875 51.953125 
Q 21.875 40.625 18.546875 37.5 
Q 15.234375 34.375 12.109375 34.375 
Q 8.984375 34.375 5.65625 37.5 
Q 2.34375 40.625 2.34375 51.953125 
Q 2.34375 63.28125 5.65625 66.40625 
Q 8.984375 69.53125 12.109375 69.53125 
Q 15.234375 69.53125 18.546875 66.40625 
Q 21.875 63.28125 21.875 51.953125 
z
M 41.015625 68.359375 
L 10.9375 1.171875 
L 7.8125 2.34375 
L 37.890625 69.53125 
z
M 46.484375 18.75 
Q 46.484375 7.421875 43.15625 4.296875 
Q 39.84375 1.171875 36.71875 1.171875 
Q 33.59375 1.171875 30.265625 4.296875 
Q 26.953125 7.421875 26.953125 18.75 
Q 26.953125 30.078125 30.265625 33.203125 
Q 33.59375 36.328125 36.71875 36.328125 
Q 39.84375 36.328125 43.15625 33.203125 
Q 46.484375 30.078125 46.484375 18.75 
z
M 15.625 51.953125 
Q 15.625 58.984375 14.84375 61.328125 
Q 14.0625 63.671875 12.109375 63.671875 
Q 10.15625 63.671875 9.375 61.328125 
Q 8.59375 58.984375 8.59375 51.953125 
Q 8.59375 44.921875 9.375 42.578125 
Q 10.15625 40.234375 12.109375 40.234375 
Q 14.0625 40.234375 14.84375 42.578125 
Q 15.625 44.921875 15.625 51.953125 
z
M 40.234375 18.75 
Q 40.234375 25.78125 39.453125 28.125 
Q 38.671875 30.46875 36.71875 30.46875 
Q 34.765625 30.46875 33.984375 28.125 
Q 33.203125 25.78125 33.203125 18.75 
Q 33.203125 11.71875 33.984375 9.375 
Q 34.765625 7.03125 36.71875 7.03125 
Q 38.671875 7.03125 39.453125 9.375 
Q 40.234375 11.71875 40.234375 18.75 
z
" id="SimHei-37"/>
     </defs>
     <use xlink:href="#SimHei-54"/>
     <use x="50" xlink:href="#SimHei-52"/>
     <use x="100" xlink:href="#SimHei-46"/>
     <use x="150" xlink:href="#SimHei-54"/>
     <use x="200" xlink:href="#SimHei-50"/>
     <use x="250" xlink:href="#SimHei-37"/>
    </g>
   </g>
   <g id="text_3">
    <!-- 大专 -->
    <g transform="translate(494.146225 358.539727)scale(0.1 -0.1)">
     <defs>
      <path d="M 45.3125 53.125 
Q 45.703125 66.796875 45.5 71.484375 
Q 45.3125 76.171875 44.921875 80.46875 
Q 49.609375 79.6875 55.46875 79.296875 
Q 54.296875 75.390625 53.703125 67.96875 
Q 53.125 60.546875 53.125 53.125 
L 73.046875 53.125 
Q 83.59375 53.125 92.578125 53.90625 
L 92.578125 45.3125 
Q 84.765625 45.703125 76.5625 45.703125 
L 53.515625 45.703125 
Q 55.078125 39.0625 58.984375 32.21875 
Q 62.890625 25.390625 66.984375 20.109375 
Q 71.09375 14.84375 78.3125 8.984375 
Q 85.546875 3.125 94.140625 -0.78125 
Q 91.015625 -3.125 87.890625 -8.59375 
Q 80.859375 -4.6875 74.015625 1.171875 
Q 67.1875 7.03125 60.34375 16.59375 
Q 53.515625 26.171875 50 34.375 
Q 46.875 25.78125 43.359375 20.109375 
Q 39.84375 14.453125 35.734375 9.765625 
Q 31.640625 5.078125 25.1875 0.390625 
Q 18.75 -4.296875 10.546875 -8.984375 
Q 7.421875 -4.296875 3.515625 -0.78125 
Q 11.71875 1.953125 19.71875 7.03125 
Q 27.734375 12.109375 32.8125 18.546875 
Q 37.890625 25 41.015625 32.03125 
Q 44.140625 39.0625 44.921875 45.703125 
L 23.4375 45.703125 
Q 14.0625 45.703125 8.59375 45.3125 
L 8.59375 53.90625 
Q 14.0625 53.515625 23.4375 53.125 
z
" id="SimHei-22823"/>
      <path d="M 69.53125 -9.375 
Q 62.109375 -5.46875 30.859375 6.25 
Q 32.8125 10.9375 33.59375 13.671875 
Q 41.015625 10.9375 53.515625 6.25 
Q 59.765625 12.890625 67.578125 23.046875 
L 39.453125 23.046875 
Q 33.203125 22.65625 30.46875 21.875 
Q 30.46875 24.21875 27.34375 29.296875 
Q 31.25 31.25 34.375 41.015625 
L 19.140625 41.015625 
Q 11.71875 41.015625 5.859375 40.625 
L 5.859375 48.4375 
Q 11.71875 48.046875 19.140625 48.046875 
L 36.71875 48.046875 
L 40.234375 59.765625 
L 25.390625 59.765625 
Q 19.140625 59.765625 14.84375 59.375 
L 14.84375 66.796875 
Q 19.140625 66.40625 25.390625 66.40625 
L 41.796875 66.40625 
Q 44.53125 75.78125 45.3125 82.03125 
Q 52.734375 80.859375 53.90625 80.859375 
Q 51.953125 75 49.609375 66.40625 
L 70.703125 66.40625 
Q 76.171875 66.40625 83.984375 66.796875 
L 83.984375 59.375 
Q 78.515625 59.765625 70.703125 59.765625 
L 48.046875 59.765625 
L 44.53125 48.046875 
L 79.296875 48.046875 
Q 85.15625 48.046875 92.96875 48.4375 
L 92.96875 40.625 
Q 87.109375 41.015625 79.6875 41.015625 
L 42.578125 41.015625 
Q 39.84375 33.59375 38.671875 30.078125 
L 81.25 30.078125 
L 81.25 23.4375 
Q 78.515625 22.65625 71.671875 15.625 
Q 64.84375 8.59375 60.546875 3.125 
Q 70.703125 -0.78125 73.4375 -1.5625 
L 69.53125 -9.375 
z
" id="SimHei-19987"/>
     </defs>
     <use xlink:href="#SimHei-22823"/>
     <use x="100" xlink:href="#SimHei-19987"/>
    </g>
   </g>
   <g id="text_4">
    <!-- 32.17% -->
    <g transform="translate(455.807032 295.732181)scale(0.1 -0.1)">
     <defs>
      <path d="M 3.90625 19.140625 
L 10.9375 20.3125 
Q 12.5 15.234375 16.015625 11.90625 
Q 19.53125 8.59375 24.796875 8.78125 
Q 30.078125 8.984375 33.203125 13.078125 
Q 36.328125 17.1875 35.9375 22.453125 
Q 35.546875 27.734375 31.828125 30.65625 
Q 28.125 33.59375 19.921875 34.765625 
L 19.921875 39.84375 
Q 28.125 40.625 31.828125 44.140625 
Q 35.546875 47.65625 35.15625 53.3125 
Q 34.765625 58.984375 30.078125 61.515625 
Q 25.390625 64.0625 20.109375 62.109375 
Q 14.84375 60.15625 11.71875 51.171875 
L 4.6875 52.34375 
Q 7.03125 59.375 11.125 64.0625 
Q 15.234375 68.75 22.265625 69.53125 
Q 29.296875 70.3125 34.5625 67.765625 
Q 39.84375 65.234375 41.984375 59.953125 
Q 44.140625 54.6875 42.578125 48.4375 
Q 41.015625 42.1875 33.59375 37.5 
Q 39.0625 35.15625 41.984375 30.46875 
Q 44.921875 25.78125 43.9375 18.15625 
Q 42.96875 10.546875 37.109375 5.859375 
Q 31.25 1.171875 23.828125 1.359375 
Q 16.40625 1.5625 10.9375 6.046875 
Q 5.46875 10.546875 3.90625 19.140625 
z
" id="SimHei-51"/>
      <path d="M 21.875 56.25 
Q 16.796875 51.171875 8.984375 46.484375 
L 8.984375 53.90625 
Q 18.75 60.546875 25 69.53125 
L 29.6875 69.53125 
L 29.6875 2.34375 
L 21.875 2.34375 
z
" id="SimHei-49"/>
      <path d="M 13.28125 2.34375 
Q 20.3125 32.03125 37.890625 61.328125 
L 4.296875 61.328125 
L 4.296875 68.359375 
L 46.09375 68.359375 
L 46.09375 61.71875 
Q 27.734375 32.03125 21.875 2.34375 
L 13.28125 2.34375 
z
" id="SimHei-55"/>
     </defs>
     <use xlink:href="#SimHei-51"/>
     <use x="50" xlink:href="#SimHei-50"/>
     <use x="100" xlink:href="#SimHei-46"/>
     <use x="150" xlink:href="#SimHei-49"/>
     <use x="200" xlink:href="#SimHei-55"/>
     <use x="250" xlink:href="#SimHei-37"/>
    </g>
   </g>
   <g id="text_5">
    <!-- 没有 -->
    <g transform="translate(587.723291 241.929239)scale(0.1 -0.1)">
     <defs>
      <path d="M 85.15625 37.109375 
Q 82.8125 30.46875 78.703125 23.046875 
Q 74.609375 15.625 68.359375 8.984375 
Q 72.65625 5.859375 81.046875 2.53125 
Q 89.453125 -0.78125 94.140625 -1.5625 
Q 91.40625 -4.6875 89.0625 -9.375 
Q 80.859375 -6.25 74.796875 -3.125 
Q 68.75 0 62.890625 4.296875 
Q 51.953125 -3.90625 34.375 -9.375 
Q 33.203125 -5.46875 29.6875 -1.5625 
Q 45.703125 0.78125 57.421875 8.59375 
Q 47.65625 17.578125 42.96875 30.859375 
Q 40.625 30.859375 37.890625 30.859375 
L 37.890625 37.5 
Q 44.921875 37.109375 51.171875 37.109375 
z
M 78.515625 75.78125 
Q 78.125 69.921875 78.125 64.0625 
L 78.125 53.90625 
Q 78.125 50.390625 83.59375 50.390625 
L 94.53125 50.78125 
Q 92.1875 46.484375 92.578125 43.75 
L 78.90625 43.75 
Q 71.484375 43.75 70.703125 51.171875 
L 70.703125 69.53125 
L 51.171875 69.53125 
Q 51.171875 58.59375 48.4375 52.140625 
Q 45.703125 45.703125 37.109375 38.671875 
Q 35.546875 41.40625 31.25 44.53125 
Q 41.40625 49.609375 42.96875 58.203125 
Q 44.53125 66.796875 43.75 75.78125 
L 78.515625 75.78125 
z
M 6.640625 -2.34375 
Q 12.5 5.078125 17.375 14.453125 
Q 22.265625 23.828125 25 31.640625 
Q 28.515625 28.90625 32.03125 26.5625 
Q 29.296875 22.65625 24.21875 12.109375 
Q 19.140625 1.5625 14.84375 -7.8125 
Q 10.15625 -3.90625 6.640625 -2.34375 
z
M 50.78125 31.25 
Q 54.296875 20.703125 62.890625 12.890625 
Q 69.921875 19.53125 74.609375 31.25 
L 51.171875 31.25 
z
M 17.96875 80.078125 
Q 26.5625 74.21875 36.328125 66.015625 
Q 32.421875 63.28125 30.46875 60.15625 
Q 21.875 68.359375 12.890625 74.21875 
Q 15.625 76.953125 17.96875 80.078125 
z
M 11.328125 58.59375 
Q 19.921875 52.34375 28.515625 44.921875 
Q 25.78125 42.578125 22.65625 39.0625 
Q 15.625 46.484375 6.25 52.34375 
Q 9.375 55.859375 11.328125 58.59375 
z
" id="SimHei-27809"/>
      <path d="M 4.296875 25.390625 
Q 13.28125 30.859375 21.875 39.640625 
Q 30.46875 48.4375 37.5 61.328125 
L 23.4375 61.328125 
Q 17.96875 61.328125 9.765625 60.9375 
L 9.765625 68.359375 
Q 19.921875 67.96875 25 67.96875 
L 39.84375 67.96875 
Q 42.96875 77.34375 43.359375 81.640625 
Q 49.21875 80.078125 52.734375 79.296875 
Q 51.5625 78.125 48.828125 67.96875 
L 80.46875 67.96875 
Q 87.109375 67.96875 94.140625 68.359375 
L 94.140625 60.9375 
Q 87.109375 61.328125 81.640625 61.328125 
L 46.484375 61.328125 
Q 43.75 56.25 40.625 51.171875 
L 85.546875 51.171875 
Q 85.15625 41.40625 85.15625 33.59375 
L 85.15625 1.953125 
Q 85.15625 -3.515625 82.03125 -6.046875 
Q 78.90625 -8.59375 68.75 -9.375 
Q 68.359375 -5.078125 66.015625 0 
Q 71.875 -0.78125 74.609375 -0.390625 
Q 77.34375 0 77.34375 3.90625 
L 77.34375 11.71875 
L 36.71875 11.71875 
L 36.71875 -8.984375 
L 28.125 -8.984375 
Q 28.515625 0.78125 28.515625 7.8125 
L 28.515625 35.546875 
Q 20.3125 26.171875 11.328125 19.140625 
Q 9.765625 21.875 4.296875 25.390625 
z
M 77.34375 33.984375 
L 77.34375 44.921875 
L 36.71875 44.921875 
L 36.71875 33.984375 
z
M 77.34375 17.96875 
L 77.34375 27.734375 
L 36.71875 27.734375 
L 36.71875 17.96875 
z
" id="SimHei-26377"/>
     </defs>
     <use xlink:href="#SimHei-27809"/>
     <use x="100" xlink:href="#SimHei-26377"/>
    </g>
   </g>
   <g id="text_6">
    <!-- 1.95% -->
    <g transform="translate(509.349068 232.137113)scale(0.1 -0.1)">
     <defs>
      <path d="M 12.5 1.171875 
Q 21.09375 15.625 26.5625 27.34375 
Q 16.796875 25.78125 10.34375 29.875 
Q 3.90625 33.984375 2.53125 41.015625 
Q 1.171875 48.046875 2.734375 53.703125 
Q 4.296875 59.375 7.609375 63.078125 
Q 10.9375 66.796875 15.625 68.359375 
Q 20.3125 69.921875 24.015625 69.921875 
Q 27.734375 69.921875 31.640625 68.359375 
Q 35.546875 66.796875 38.671875 63.671875 
Q 41.796875 60.546875 42.96875 57.21875 
Q 44.140625 53.90625 44.140625 48.625 
Q 44.140625 43.359375 40.234375 35.15625 
Q 36.328125 26.953125 21.09375 1.171875 
z
M 9.765625 50 
Q 10.9375 39.84375 14.640625 36.515625 
Q 18.359375 33.203125 22.65625 33.59375 
Q 26.953125 33.984375 29.484375 35.9375 
Q 32.03125 37.890625 34.375 42.578125 
Q 35.9375 48.4375 35.15625 52.53125 
Q 34.375 56.640625 31.046875 59.375 
Q 27.734375 62.109375 23.828125 62.109375 
Q 21.484375 62.5 17.765625 60.9375 
Q 14.0625 59.375 11.90625 54.6875 
Q 9.765625 50 10.9375 39.84375 
z
" id="SimHei-57"/>
      <path d="M 8.59375 20.703125 
Q 11.328125 10.15625 17.96875 8.984375 
Q 24.609375 7.8125 28.703125 10.34375 
Q 32.8125 12.890625 34.5625 16.984375 
Q 36.328125 21.09375 36.125 26.171875 
Q 35.9375 31.25 33.390625 34.765625 
Q 30.859375 38.28125 26.953125 39.453125 
Q 23.046875 40.625 18.15625 39.453125 
Q 13.28125 38.28125 10.15625 33.984375 
L 3.515625 34.765625 
Q 4.296875 37.109375 10.9375 68.359375 
L 41.796875 68.359375 
L 41.796875 61.328125 
L 16.796875 61.328125 
Q 14.84375 50.78125 12.890625 44.53125 
Q 18.75 47.265625 23.828125 47.0625 
Q 28.90625 46.875 33.59375 44.71875 
Q 38.28125 42.578125 40.421875 38.859375 
Q 42.578125 35.15625 43.546875 31.4375 
Q 44.53125 27.734375 44.328125 23.4375 
Q 44.140625 19.140625 42.578125 14.640625 
Q 41.015625 10.15625 37.890625 7.21875 
Q 34.765625 4.296875 30.265625 2.53125 
Q 25.78125 0.78125 19.921875 1.171875 
Q 14.0625 1.5625 8.78125 5.46875 
Q 3.515625 9.375 1.5625 18.75 
z
" id="SimHei-53"/>
     </defs>
     <use xlink:href="#SimHei-49"/>
     <use x="50" xlink:href="#SimHei-46"/>
     <use x="100" xlink:href="#SimHei-57"/>
     <use x="150" xlink:href="#SimHei-53"/>
     <use x="200" xlink:href="#SimHei-37"/>
    </g>
   </g>
   <g id="text_7">
    <!-- 硕士 -->
    <g transform="translate(589.020932 227.915223)scale(0.1 -0.1)">
     <defs>
      <path d="M 32.03125 76.171875 
Q 35.9375 76.171875 42.96875 76.5625 
L 42.96875 69.53125 
Q 37.109375 69.921875 29.296875 69.921875 
Q 27.34375 59.375 22.65625 49.21875 
L 41.015625 49.21875 
Q 40.625 41.796875 40.625 36.71875 
L 40.625 17.578125 
Q 40.625 11.71875 41.015625 3.515625 
L 33.984375 3.515625 
L 33.984375 10.9375 
L 22.65625 10.9375 
L 22.65625 -1.171875 
L 15.625 -1.171875 
Q 16.015625 7.421875 16.015625 13.28125 
L 16.015625 37.890625 
Q 13.671875 33.59375 8.59375 27.734375 
Q 6.25 32.03125 3.90625 33.984375 
Q 8.59375 38.671875 11.90625 44.140625 
Q 15.234375 49.609375 17.96875 55.859375 
Q 20.703125 62.109375 21.875 69.921875 
Q 14.84375 69.921875 8.59375 69.53125 
L 8.59375 76.5625 
Q 14.84375 76.171875 19.921875 76.171875 
z
M 82.421875 77.734375 
Q 87.5 77.734375 93.359375 78.125 
L 93.359375 71.09375 
Q 82.421875 71.484375 73.4375 71.484375 
Q 72.65625 65.625 71.09375 58.984375 
L 89.84375 58.984375 
Q 89.453125 52.734375 89.453125 36.328125 
Q 89.453125 20.3125 89.84375 12.5 
L 82.8125 12.5 
L 82.8125 52.734375 
L 56.25 52.734375 
L 56.25 12.5 
L 49.21875 12.5 
Q 49.609375 23.046875 49.609375 37.5 
Q 49.609375 52.34375 49.21875 58.984375 
L 63.671875 58.984375 
Q 64.84375 64.84375 65.625 71.484375 
Q 51.171875 71.484375 45.703125 71.09375 
L 45.703125 78.125 
Q 51.171875 77.734375 58.59375 77.734375 
z
M 74.609375 43.75 
Q 73.4375 38.671875 73.046875 31.828125 
Q 72.65625 25 70.703125 16.40625 
Q 68.75 7.8125 62.296875 0.578125 
Q 55.859375 -6.640625 47.65625 -10.9375 
Q 46.09375 -7.03125 41.40625 -4.296875 
Q 51.5625 0 56.640625 5.65625 
Q 61.71875 11.328125 63.46875 17.1875 
Q 65.234375 23.046875 65.625 30.65625 
Q 66.015625 38.28125 65.625 45.703125 
Q 70.3125 44.53125 74.609375 43.75 
z
M 33.984375 16.796875 
L 33.984375 42.578125 
L 22.65625 42.578125 
L 22.65625 16.796875 
z
M 76.953125 16.015625 
Q 85.546875 8.984375 94.921875 -2.734375 
Q 91.015625 -5.46875 88.28125 -8.984375 
Q 84.375 -1.953125 71.875 9.765625 
Q 75 12.5 76.953125 16.015625 
z
" id="SimHei-30805"/>
      <path d="M 54.6875 80.859375 
Q 54.296875 74.609375 54.296875 67.578125 
L 54.296875 47.265625 
L 77.734375 47.265625 
Q 84.765625 47.265625 94.140625 47.65625 
L 94.140625 39.453125 
Q 85.9375 39.84375 78.125 39.84375 
L 54.296875 39.84375 
L 54.296875 1.5625 
L 70.3125 1.5625 
Q 77.34375 1.5625 85.9375 1.953125 
L 85.9375 -6.25 
Q 78.90625 -5.859375 70.703125 -5.859375 
L 29.6875 -5.859375 
Q 21.09375 -5.859375 13.671875 -6.25 
L 13.671875 1.953125 
Q 20.703125 1.5625 29.6875 1.5625 
L 45.703125 1.5625 
L 45.703125 39.84375 
L 21.484375 39.84375 
Q 12.890625 39.84375 6.25 39.453125 
L 6.25 47.65625 
Q 12.890625 47.265625 21.484375 47.265625 
L 45.703125 47.265625 
L 45.703125 67.578125 
Q 45.703125 74.609375 45.3125 80.859375 
L 54.6875 80.859375 
z
" id="SimHei-22763"/>
     </defs>
     <use xlink:href="#SimHei-30805"/>
     <use x="100" xlink:href="#SimHei-22763"/>
    </g>
   </g>
   <g id="text_8">
    <!-- 1.12% -->
    <g transform="translate(510.056872 224.471798)scale(0.1 -0.1)">
     <use xlink:href="#SimHei-49"/>
     <use x="50" xlink:href="#SimHei-46"/>
     <use x="100" xlink:href="#SimHei-49"/>
     <use x="150" xlink:href="#SimHei-50"/>
     <use x="200" xlink:href="#SimHei-37"/>
    </g>
   </g>
   <g id="text_9">
    <!-- 高中 -->
    <g transform="translate(589.160193 222.102532)scale(0.1 -0.1)">
     <defs>
      <path d="M 91.015625 -0.390625 
Q 91.40625 -6.25 86.71875 -7.8125 
Q 82.03125 -9.375 77.734375 -9.765625 
Q 76.171875 -5.078125 73.828125 -1.5625 
Q 77.734375 -1.5625 80.859375 -1.359375 
Q 83.984375 -1.171875 83.59375 3.90625 
L 83.59375 28.515625 
L 17.1875 28.515625 
L 17.1875 -8.984375 
L 9.375 -8.984375 
Q 9.765625 -3.515625 9.765625 13.28125 
Q 9.765625 30.46875 9.375 34.375 
L 91.40625 34.375 
Q 91.015625 28.90625 91.015625 22.265625 
z
M 76.953125 59.375 
Q 76.5625 54.296875 76.5625 49.609375 
Q 76.5625 45.3125 76.953125 40.625 
L 21.875 40.625 
Q 22.265625 44.140625 22.265625 49.609375 
Q 22.265625 55.078125 21.875 59.375 
L 76.953125 59.375 
z
M 70.3125 21.875 
Q 69.921875 17.578125 69.921875 12.5 
Q 69.921875 7.8125 70.3125 3.125 
L 30.46875 3.125 
Q 31.25 7.8125 31.25 12.5 
Q 31.25 17.578125 30.46875 21.875 
L 70.3125 21.875 
z
M 6.640625 71.875 
Q 11.71875 71.484375 17.578125 71.484375 
L 45.703125 71.484375 
Q 44.53125 76.171875 42.96875 79.6875 
Q 47.65625 80.078125 52.34375 81.25 
Q 53.125 77.34375 55.078125 71.484375 
L 82.03125 71.484375 
Q 87.5 71.484375 93.359375 71.875 
L 93.359375 64.84375 
Q 87.5 65.234375 78.90625 65.234375 
L 17.96875 65.234375 
Q 11.71875 65.234375 6.640625 64.84375 
z
M 69.53125 46.484375 
L 69.53125 53.515625 
L 29.6875 53.515625 
L 29.6875 46.484375 
z
M 62.890625 8.59375 
L 62.890625 16.40625 
L 37.5 16.40625 
L 37.5 8.59375 
z
" id="SimHei-39640"/>
      <path d="M 54.296875 81.25 
Q 53.90625 70.3125 53.90625 60.546875 
L 87.890625 60.546875 
Q 87.5 52.734375 87.5 39.0625 
Q 87.5 25.78125 87.890625 19.140625 
L 79.296875 19.140625 
L 79.296875 25 
L 53.90625 25 
L 53.90625 8.203125 
Q 53.90625 3.515625 54.296875 -9.375 
L 44.921875 -9.375 
Q 45.703125 -2.34375 45.703125 7.03125 
L 45.703125 25 
L 20.3125 25 
L 20.3125 19.140625 
L 11.71875 19.140625 
Q 12.109375 25 12.109375 39.0625 
Q 12.109375 53.515625 11.71875 60.546875 
L 45.703125 60.546875 
Q 45.703125 71.09375 45.3125 81.25 
z
M 79.296875 31.25 
L 79.296875 54.296875 
L 53.90625 54.296875 
L 53.90625 31.25 
z
M 45.703125 31.25 
L 45.703125 54.296875 
L 20.3125 54.296875 
L 20.3125 31.25 
z
" id="SimHei-20013"/>
     </defs>
     <use xlink:href="#SimHei-39640"/>
     <use x="100" xlink:href="#SimHei-20013"/>
    </g>
   </g>
   <g id="text_10">
    <!-- 0.14% -->
    <g transform="translate(510.132833 221.322546)scale(0.1 -0.1)">
     <defs>
      <path d="M 3.125 29.296875 
Q 3.90625 50 6.4375 56.046875 
Q 8.984375 62.109375 13.671875 66.015625 
Q 18.359375 69.921875 25.1875 69.921875 
Q 32.03125 69.921875 37.109375 64.25 
Q 42.1875 58.59375 43.75 50 
Q 45.3125 41.40625 44.71875 30.265625 
Q 44.140625 19.140625 40.8125 12.109375 
Q 37.5 5.078125 30.859375 2.34375 
Q 24.21875 -0.390625 17.578125 2.921875 
Q 10.9375 6.25 8.203125 11.71875 
Q 5.46875 17.1875 4.296875 23.234375 
Q 3.125 29.296875 3.90625 50 
z
M 12.890625 52.734375 
Q 10.546875 31.25 12.5 22.84375 
Q 14.453125 14.453125 18.9375 10.9375 
Q 23.4375 7.421875 28.125 9.5625 
Q 32.8125 11.71875 34.953125 18.15625 
Q 37.109375 24.609375 37.109375 32.21875 
Q 37.109375 39.84375 36.515625 46.09375 
Q 35.9375 52.34375 33 57.421875 
Q 30.078125 62.5 25.1875 62.6875 
Q 20.3125 62.890625 16.59375 57.8125 
Q 12.890625 52.734375 10.546875 31.25 
z
" id="SimHei-48"/>
     </defs>
     <use xlink:href="#SimHei-48"/>
     <use x="50" xlink:href="#SimHei-46"/>
     <use x="100" xlink:href="#SimHei-49"/>
     <use x="150" xlink:href="#SimHei-52"/>
     <use x="200" xlink:href="#SimHei-37"/>
    </g>
   </g>
   <g id="text_11">
    <!-- python.xlsx学历要求饼状图 -->
    <g transform="translate(367.8 45.84)scale(0.12 -0.12)">
     <defs>
      <path d="M 44.140625 23.828125 
Q 44.140625 12.5 38.671875 6.640625 
Q 33.203125 0.78125 25.390625 0.78125 
Q 21.09375 0.78125 17.96875 2.53125 
Q 14.84375 4.296875 12.5 7.8125 
L 12.5 -12.5 
L 4.6875 -12.5 
L 4.6875 45.703125 
L 12.5 45.703125 
L 12.5 39.84375 
Q 14.84375 43.359375 17.96875 44.921875 
Q 21.09375 46.484375 25.390625 46.484375 
Q 33.203125 46.484375 38.671875 40.8125 
Q 44.140625 35.15625 44.140625 23.828125 
z
M 35.546875 23.828125 
Q 35.546875 31.25 32.609375 35.34375 
Q 29.6875 39.453125 23.828125 39.453125 
Q 19.140625 39.453125 15.8125 35.34375 
Q 12.5 31.25 12.5 23.828125 
Q 12.5 16.40625 15.8125 12.109375 
Q 19.140625 7.8125 23.828125 7.8125 
Q 29.6875 7.8125 32.609375 12.109375 
Q 35.546875 16.40625 35.546875 23.828125 
z
" id="SimHei-112"/>
      <path d="M 45.3125 45.703125 
L 27.34375 -1.5625 
Q 25.78125 -7.03125 22.65625 -9.765625 
Q 19.53125 -12.5 14.84375 -12.5 
Q 12.890625 -12.5 11.125 -12.296875 
Q 9.375 -12.109375 7.8125 -11.328125 
L 7.8125 -3.515625 
Q 9.375 -4.296875 10.9375 -4.6875 
Q 12.5 -5.078125 13.671875 -5.078125 
Q 16.796875 -5.078125 17.96875 -4.09375 
Q 19.140625 -3.125 20.3125 0.390625 
L 3.125 45.703125 
L 11.71875 45.703125 
L 24.21875 11.328125 
L 24.609375 11.328125 
L 36.71875 45.703125 
z
" id="SimHei-121"/>
      <path d="M 42.96875 3.125 
Q 41.015625 2.34375 38.46875 1.75 
Q 35.9375 1.171875 31.640625 1.171875 
Q 24.609375 1.171875 20.3125 5.078125 
Q 16.015625 8.984375 16.015625 16.015625 
L 16.015625 39.453125 
L 2.734375 39.453125 
L 2.734375 45.703125 
L 16.015625 45.703125 
L 16.015625 60.9375 
L 23.828125 60.9375 
L 23.828125 45.703125 
L 39.84375 45.703125 
L 39.84375 39.453125 
L 23.828125 39.453125 
L 23.828125 15.625 
Q 23.828125 12.5 25.390625 10.34375 
Q 26.953125 8.203125 31.25 8.203125 
Q 35.546875 8.203125 38.28125 8.984375 
Q 41.015625 9.765625 42.96875 10.9375 
z
" id="SimHei-116"/>
      <path d="M 43.75 1.953125 
L 35.9375 1.953125 
L 35.9375 30.078125 
Q 35.9375 34.765625 33.59375 37.5 
Q 31.25 40.234375 27.34375 40.234375 
Q 22.265625 40.234375 17.765625 34.953125 
Q 13.28125 29.6875 13.28125 21.875 
L 13.28125 1.953125 
L 5.46875 1.953125 
L 5.46875 68.75 
L 13.28125 68.75 
L 13.28125 37.5 
Q 16.40625 41.796875 20.109375 44.140625 
Q 23.828125 46.484375 29.6875 46.484375 
Q 36.71875 46.484375 40.234375 42.578125 
Q 43.75 38.671875 43.75 32.8125 
z
" id="SimHei-104"/>
      <path d="M 45.703125 23.828125 
Q 45.703125 13.671875 39.453125 7.421875 
Q 33.203125 1.171875 24.609375 1.171875 
Q 16.015625 1.171875 9.765625 7.421875 
Q 3.515625 13.671875 3.515625 23.828125 
Q 3.515625 33.984375 9.765625 40.234375 
Q 16.015625 46.484375 24.609375 46.484375 
Q 33.203125 46.484375 39.453125 40.234375 
Q 45.703125 33.984375 45.703125 23.828125 
z
M 37.109375 23.828125 
Q 37.109375 31.640625 33.203125 35.546875 
Q 29.296875 39.453125 24.609375 39.453125 
Q 19.921875 39.453125 16.015625 35.546875 
Q 12.109375 31.640625 12.109375 23.828125 
Q 12.109375 16.015625 16.015625 12.109375 
Q 19.921875 8.203125 24.609375 8.203125 
Q 29.296875 8.203125 33.203125 12.109375 
Q 37.109375 16.015625 37.109375 23.828125 
z
" id="SimHei-111"/>
      <path d="M 43.75 1.953125 
L 35.9375 1.953125 
L 35.9375 30.078125 
Q 35.9375 34.765625 33.59375 37.5 
Q 31.25 40.234375 27.34375 40.234375 
Q 22.265625 40.234375 17.765625 34.953125 
Q 13.28125 29.6875 13.28125 21.875 
L 13.28125 1.953125 
L 5.46875 1.953125 
L 5.46875 45.703125 
L 13.28125 45.703125 
L 13.28125 37.5 
Q 16.40625 41.796875 20.109375 44.140625 
Q 23.828125 46.484375 29.6875 46.484375 
Q 36.71875 46.484375 40.234375 42.578125 
Q 43.75 38.671875 43.75 32.8125 
z
" id="SimHei-110"/>
      <path d="M 44.921875 1.953125 
L 35.546875 1.953125 
L 24.21875 18.75 
L 12.890625 1.953125 
L 3.515625 1.953125 
L 19.53125 24.21875 
L 4.6875 45.703125 
L 14.0625 45.703125 
L 24.21875 29.296875 
L 34.375 45.703125 
L 43.75 45.703125 
L 28.90625 24.21875 
z
" id="SimHei-120"/>
      <path d="M 28.515625 1.953125 
L 20.703125 1.953125 
L 20.703125 68.75 
L 28.515625 68.75 
z
" id="SimHei-108"/>
      <path d="M 42.96875 14.0625 
Q 42.96875 7.8125 38.078125 4.484375 
Q 33.203125 1.171875 25.78125 1.171875 
Q 16.40625 1.171875 11.328125 4.875 
Q 6.25 8.59375 6.25 15.625 
L 14.0625 15.625 
Q 14.0625 10.9375 17.375 9.375 
Q 20.703125 7.8125 25.390625 7.8125 
Q 30.078125 7.8125 32.421875 9.5625 
Q 34.765625 11.328125 34.765625 14.0625 
Q 34.765625 16.015625 32.8125 17.96875 
Q 30.859375 19.921875 23.046875 21.09375 
Q 14.0625 22.265625 10.734375 25.578125 
Q 7.421875 28.90625 7.421875 34.375 
Q 7.421875 39.0625 11.90625 42.765625 
Q 16.40625 46.484375 25 46.484375 
Q 32.8125 46.484375 37.296875 42.96875 
Q 41.796875 39.453125 41.796875 33.59375 
L 33.984375 33.59375 
Q 33.984375 37.109375 31.4375 38.46875 
Q 28.90625 39.84375 25 39.84375 
Q 19.921875 39.84375 17.765625 38.078125 
Q 15.625 36.328125 15.625 33.984375 
Q 15.625 31.25 17.578125 29.6875 
Q 19.53125 28.125 25.78125 27.34375 
Q 35.9375 25.78125 39.453125 22.453125 
Q 42.96875 19.140625 42.96875 14.0625 
z
" id="SimHei-115"/>
      <path d="M 76.171875 41.796875 
L 76.171875 33.59375 
Q 70.703125 32.421875 66.203125 29.875 
Q 61.71875 27.34375 55.859375 24.609375 
L 55.859375 21.09375 
L 80.46875 21.09375 
Q 85.15625 21.09375 92.578125 21.484375 
L 92.578125 13.671875 
Q 84.765625 14.0625 80.46875 14.0625 
L 55.859375 14.0625 
L 55.859375 -1.953125 
Q 55.859375 -7.421875 51.5625 -8.78125 
Q 47.265625 -10.15625 37.5 -10.9375 
Q 36.328125 -6.640625 33.59375 -2.34375 
L 44.140625 -2.34375 
Q 48.046875 -2.34375 48.046875 1.953125 
L 48.046875 14.0625 
L 21.09375 14.0625 
Q 14.84375 14.0625 7.03125 13.671875 
L 7.03125 21.484375 
Q 15.234375 21.09375 20.703125 21.09375 
L 48.046875 21.09375 
Q 48.046875 24.21875 47.265625 28.125 
L 61.328125 35.15625 
L 39.84375 35.15625 
Q 32.421875 35.15625 23.046875 34.765625 
L 23.046875 42.1875 
Q 31.640625 41.796875 39.453125 41.796875 
z
M 83.59375 77.734375 
Q 75.78125 68.75 70.3125 59.375 
L 91.796875 59.375 
Q 91.40625 55.859375 91.40625 51.171875 
Q 91.40625 46.484375 91.796875 42.1875 
L 83.59375 42.1875 
L 83.59375 52.734375 
L 16.015625 52.734375 
L 16.015625 41.796875 
L 7.8125 41.796875 
Q 8.203125 46.484375 8.203125 51.171875 
Q 8.203125 55.859375 7.8125 59.375 
L 62.109375 59.375 
Q 65.234375 64.84375 68.546875 70.890625 
Q 71.875 76.953125 73.828125 82.8125 
Q 80.078125 79.296875 83.59375 77.734375 
z
M 46.09375 81.640625 
Q 53.515625 72.265625 55.859375 67.96875 
Q 52.34375 65.234375 48.4375 62.890625 
Q 45.3125 69.140625 39.0625 76.953125 
Q 42.96875 79.6875 46.09375 81.640625 
z
M 19.53125 78.90625 
Q 26.5625 73.046875 31.640625 66.796875 
Q 27.34375 63.671875 25 60.9375 
Q 19.921875 68.359375 13.28125 73.828125 
Q 17.578125 76.953125 19.53125 78.90625 
z
" id="SimHei-23398"/>
      <path d="M 58.203125 39.0625 
Q 56.640625 27.734375 54.484375 20.890625 
Q 52.34375 14.0625 49.21875 8.78125 
Q 46.09375 3.515625 41.984375 -0.96875 
Q 37.890625 -5.46875 32.421875 -9.765625 
Q 28.515625 -5.46875 23.4375 -3.515625 
Q 32.421875 1.171875 37.296875 6.4375 
Q 42.1875 11.71875 44.921875 17.578125 
Q 47.65625 23.4375 48.625 27.921875 
Q 49.609375 32.421875 50.390625 39.0625 
L 42.578125 39.0625 
Q 33.203125 39.0625 29.6875 38.671875 
L 29.6875 46.09375 
Q 37.109375 45.703125 41.796875 45.703125 
L 50.78125 45.703125 
Q 51.171875 50.78125 51.171875 55.46875 
L 51.171875 66.796875 
Q 56.640625 65.234375 60.9375 64.84375 
Q 59.765625 58.984375 59.375 54.875 
Q 58.984375 50.78125 58.59375 45.703125 
L 88.28125 45.703125 
Q 87.5 39.84375 86.71875 28.90625 
Q 85.9375 17.96875 85.546875 10.734375 
Q 85.15625 3.515625 83.984375 -0.78125 
Q 82.8125 -5.078125 77.921875 -6.4375 
Q 73.046875 -7.8125 67.1875 -8.59375 
Q 66.015625 -3.90625 63.28125 1.5625 
Q 71.484375 1.171875 73.828125 1.953125 
Q 76.171875 2.734375 76.75 8.78125 
Q 77.34375 14.84375 78.125 23.046875 
Q 78.90625 31.25 79.296875 39.0625 
z
M 12.5 -10.546875 
Q 8.59375 -7.8125 3.515625 -6.25 
Q 8.203125 0 10.34375 6.4375 
Q 12.5 12.890625 14.0625 22.0625 
Q 15.625 31.25 15.625 42.578125 
L 15.625 61.71875 
Q 15.625 69.53125 14.84375 75.390625 
L 75.390625 75.390625 
Q 83.984375 75.390625 88.671875 75.78125 
L 88.671875 68.359375 
Q 84.765625 68.75 78.125 68.75 
L 23.4375 68.75 
Q 23.4375 43.75 23.234375 35.734375 
Q 23.046875 27.734375 22.0625 19.921875 
Q 21.09375 12.109375 19.71875 7.03125 
Q 18.359375 1.953125 16.59375 -2.53125 
Q 14.84375 -7.03125 12.5 -10.546875 
z
" id="SimHei-21382"/>
      <path d="M 79.6875 78.125 
Q 85.546875 78.125 92.96875 78.515625 
L 92.96875 71.875 
Q 85.546875 72.265625 79.6875 72.265625 
L 64.0625 72.265625 
L 64.0625 62.109375 
L 85.9375 62.109375 
Q 85.546875 55.46875 85.546875 49.609375 
Q 85.546875 43.75 85.9375 37.5 
L 44.53125 37.5 
Q 48.828125 34.765625 51.171875 33.203125 
Q 47.65625 30.859375 46.09375 28.90625 
L 82.8125 28.90625 
Q 89.0625 28.90625 96.09375 29.6875 
L 96.09375 22.265625 
Q 89.0625 22.65625 82.421875 22.65625 
L 71.09375 22.65625 
Q 67.1875 16.015625 60.546875 8.203125 
Q 78.125 3.515625 93.75 -1.953125 
Q 89.84375 -4.6875 87.5 -8.59375 
Q 72.65625 -1.953125 54.6875 3.125 
Q 49.21875 -0.78125 40.8125 -3.90625 
Q 32.421875 -7.03125 24.796875 -8.203125 
Q 17.1875 -9.375 10.9375 -10.15625 
Q 9.765625 -5.078125 5.859375 -1.953125 
Q 13.28125 -2.34375 21.484375 -1.5625 
Q 29.6875 -0.78125 36.328125 1.359375 
Q 42.96875 3.515625 46.875 5.859375 
Q 33.984375 8.984375 21.484375 11.328125 
Q 27.34375 17.1875 32.421875 22.65625 
L 16.015625 22.65625 
Q 9.375 22.65625 3.125 22.265625 
L 3.125 29.296875 
Q 10.9375 28.90625 16.015625 28.90625 
L 36.71875 28.90625 
Q 40.625 33.59375 42.96875 37.5 
L 14.0625 37.5 
Q 14.453125 43.75 14.453125 49.609375 
Q 14.453125 55.46875 14.0625 62.109375 
L 35.546875 62.109375 
L 35.546875 72.265625 
L 20.3125 72.265625 
Q 13.671875 72.265625 6.25 71.875 
L 6.25 78.515625 
Q 13.671875 78.125 19.921875 78.125 
z
M 34.765625 15.234375 
Q 41.015625 14.0625 53.125 10.546875 
Q 57.8125 15.234375 62.890625 22.65625 
L 41.796875 22.65625 
Q 38.28125 19.140625 34.765625 15.234375 
z
M 57.03125 43.359375 
L 57.03125 55.859375 
L 42.96875 55.859375 
L 42.96875 43.359375 
z
M 78.125 43.359375 
L 78.125 55.859375 
L 64.0625 55.859375 
L 64.0625 43.359375 
z
M 35.546875 43.359375 
L 35.546875 55.859375 
L 21.875 55.859375 
L 21.875 43.359375 
z
M 57.03125 62.109375 
L 57.03125 72.265625 
L 42.96875 72.265625 
L 42.96875 62.109375 
z
" id="SimHei-35201"/>
      <path d="M 7.421875 62.890625 
Q 13.671875 62.5 20.703125 62.5 
L 44.921875 62.5 
Q 44.921875 73.828125 44.53125 80.078125 
L 53.125 80.078125 
Q 52.734375 73.828125 52.734375 62.5 
L 80.46875 62.5 
Q 85.9375 62.5 92.578125 62.890625 
L 92.578125 55.859375 
Q 85.546875 56.25 80.46875 56.25 
L 52.734375 56.25 
Q 53.125 50 56.4375 42.96875 
Q 59.765625 35.9375 63.28125 31.25 
Q 71.875 38.28125 79.296875 49.21875 
Q 82.03125 46.09375 87.109375 42.96875 
Q 82.421875 40.625 66.40625 25.78125 
Q 71.484375 19.140625 78.703125 13.28125 
Q 85.9375 7.421875 94.53125 5.078125 
Q 89.0625 1.953125 86.71875 -2.34375 
Q 78.125 2.34375 69.328125 10.734375 
Q 60.546875 19.140625 52.734375 37.109375 
L 52.734375 2.34375 
Q 53.125 -3.515625 49.015625 -5.46875 
Q 44.921875 -7.421875 37.109375 -8.203125 
Q 36.328125 -4.296875 33.59375 0.390625 
Q 40.234375 0 42.765625 0.578125 
Q 45.3125 1.171875 44.921875 4.6875 
L 44.921875 26.171875 
Q 29.296875 14.0625 22.453125 8.59375 
Q 15.625 3.125 11.328125 -0.78125 
Q 7.8125 3.125 4.6875 6.25 
Q 10.15625 8.984375 18.75 14.640625 
Q 27.34375 20.3125 44.921875 35.15625 
L 44.921875 56.25 
L 20.703125 56.25 
Q 13.671875 56.25 7.421875 55.859375 
z
M 19.140625 49.609375 
Q 27.734375 42.578125 35.15625 36.328125 
L 28.515625 30.46875 
Q 22.65625 37.109375 12.890625 44.140625 
L 19.140625 49.609375 
z
M 70.3125 79.6875 
Q 76.5625 75.390625 82.8125 69.140625 
Q 80.078125 67.1875 76.953125 64.0625 
Q 72.65625 68.75 64.453125 75.390625 
Q 66.796875 77.34375 70.3125 79.6875 
z
" id="SimHei-27714"/>
      <path d="M 81.25 33.203125 
L 87.109375 33.203125 
Q 92.1875 33.203125 96.09375 33.59375 
L 96.09375 26.171875 
Q 91.40625 26.5625 88.28125 26.5625 
L 81.25 26.5625 
L 81.25 3.515625 
Q 81.25 -5.078125 81.640625 -9.765625 
L 73.4375 -9.765625 
Q 73.828125 -5.46875 73.828125 3.515625 
L 73.828125 26.5625 
L 60.9375 26.5625 
Q 59.765625 12.109375 55.65625 5.265625 
Q 51.5625 -1.5625 41.015625 -10.9375 
Q 37.109375 -7.03125 32.8125 -4.6875 
Q 42.1875 0.390625 47.65625 7.421875 
Q 53.125 14.453125 53.515625 26.5625 
Q 41.796875 26.5625 38.28125 25.78125 
L 38.28125 33.59375 
Q 41.40625 33.203125 53.515625 33.203125 
L 53.515625 53.125 
Q 49.21875 53.125 42.96875 52.734375 
L 42.96875 60.15625 
Q 47.265625 59.765625 51.953125 59.765625 
L 70.703125 59.765625 
Q 74.609375 68.75 77.734375 81.640625 
Q 82.421875 79.296875 87.109375 77.34375 
Q 84.375 75 82.421875 70.5 
Q 80.46875 66.015625 77.734375 59.765625 
L 84.765625 59.765625 
Q 88.28125 59.765625 92.1875 60.15625 
L 92.1875 52.734375 
Q 88.671875 53.125 81.25 53.125 
z
M 17.96875 57.03125 
Q 14.0625 48.828125 7.8125 40.625 
Q 5.859375 44.140625 3.125 46.875 
Q 7.8125 51.953125 11.90625 61.328125 
Q 16.015625 70.703125 17.578125 80.078125 
Q 22.265625 77.734375 26.953125 76.5625 
Q 25 74.21875 23.234375 70.703125 
Q 21.484375 67.1875 20.3125 63.671875 
L 40.625 63.671875 
Q 38.28125 56.25 35.546875 45.3125 
Q 30.46875 46.09375 28.125 46.09375 
Q 29.6875 51.953125 31.25 57.03125 
z
M 25.390625 44.140625 
Q 24.609375 40.234375 24.609375 33.984375 
L 24.609375 11.328125 
Q 30.078125 15.625 35.15625 21.484375 
Q 36.328125 16.796875 38.671875 13.28125 
Q 33.59375 9.765625 28.515625 5.265625 
Q 23.4375 0.78125 19.53125 -4.6875 
Q 16.796875 -0.78125 14.0625 2.34375 
Q 17.1875 6.640625 17.1875 14.453125 
L 17.1875 33.984375 
Q 17.1875 39.84375 16.796875 44.140625 
L 25.390625 44.140625 
z
M 73.828125 33.203125 
L 73.828125 53.125 
L 60.9375 53.125 
L 60.9375 33.203125 
z
M 56.25 81.25 
Q 58.984375 75.390625 64.0625 65.625 
Q 59.375 64.453125 56.25 62.109375 
Q 52.734375 71.09375 48.828125 77.734375 
Q 52.34375 78.90625 56.25 81.25 
z
" id="SimHei-39292"/>
      <path d="M 34.765625 -4.296875 
Q 41.796875 0.390625 46.484375 7.421875 
Q 51.171875 14.453125 53.90625 21.09375 
Q 56.640625 27.734375 57.8125 33.984375 
Q 58.984375 40.234375 59.375 44.921875 
L 50.390625 44.921875 
Q 44.53125 44.921875 39.0625 44.53125 
L 39.0625 51.953125 
Q 44.53125 51.5625 50 51.5625 
L 59.765625 51.5625 
Q 59.765625 62.109375 59.5625 68.359375 
Q 59.375 74.609375 58.984375 79.296875 
L 69.140625 79.296875 
Q 67.96875 74.21875 67.765625 68.9375 
Q 67.578125 63.671875 67.578125 51.5625 
L 83.59375 51.5625 
Q 87.890625 51.5625 93.359375 51.953125 
L 93.359375 44.53125 
Q 87.890625 44.921875 83.59375 44.921875 
L 68.359375 44.921875 
Q 73.046875 22.65625 78.3125 15.03125 
Q 83.59375 7.421875 87.890625 4.09375 
Q 92.1875 0.78125 95.703125 -1.171875 
Q 90.234375 -3.515625 87.890625 -8.203125 
Q 81.640625 -3.125 77.921875 1.75 
Q 74.21875 6.640625 71.671875 11.328125 
Q 69.140625 16.015625 67.375 20.890625 
Q 65.625 25.78125 64.453125 31.25 
Q 62.5 21.875 59.5625 15.234375 
Q 56.640625 8.59375 53.515625 3.703125 
Q 50.390625 -1.171875 42.96875 -9.765625 
Q 39.453125 -6.25 34.765625 -4.296875 
z
M 34.765625 81.25 
Q 34.375 75.390625 34.375 66.40625 
L 34.375 12.109375 
Q 34.375 0.78125 34.765625 -9.765625 
L 26.171875 -9.765625 
Q 26.5625 1.171875 26.5625 12.109375 
L 26.5625 30.46875 
Q 23.828125 27.34375 18.75 21.09375 
Q 13.671875 14.84375 10.9375 11.71875 
Q 7.8125 15.625 4.296875 17.96875 
Q 8.984375 21.484375 14.25 26.75 
Q 19.53125 32.03125 26.5625 40.625 
L 26.5625 66.40625 
Q 26.5625 75.390625 26.171875 81.25 
L 34.765625 81.25 
z
M 9.765625 67.578125 
Q 12.5 64.453125 15.625 60.546875 
Q 18.75 56.640625 21.484375 52.734375 
Q 18.359375 50.390625 16.40625 48.046875 
Q 13.28125 52.34375 3.90625 63.28125 
Q 6.25 65.234375 9.765625 67.578125 
z
M 85.546875 57.03125 
Q 82.03125 62.109375 73.4375 69.921875 
Q 76.5625 72.265625 78.515625 74.21875 
Q 82.03125 71.484375 84.765625 68.546875 
Q 87.5 65.625 91.015625 62.109375 
Q 87.890625 59.375 85.546875 57.03125 
z
" id="SimHei-29366"/>
      <path d="M 90.625 77.734375 
Q 90.234375 67.96875 90.234375 56.25 
L 90.234375 14.453125 
Q 90.234375 2.34375 90.625 -9.375 
L 82.8125 -9.375 
L 82.8125 -4.296875 
L 17.578125 -4.296875 
L 17.578125 -10.15625 
L 9.765625 -10.15625 
Q 10.15625 1.953125 10.15625 14.84375 
L 10.15625 56.25 
Q 10.15625 67.578125 9.765625 77.734375 
L 90.625 77.734375 
z
M 82.8125 2.34375 
L 82.8125 71.484375 
L 17.578125 71.484375 
L 17.578125 2.34375 
z
M 50.390625 66.40625 
Q 48.046875 64.0625 46.09375 61.328125 
L 72.265625 61.328125 
Q 70.703125 57.8125 67.1875 52.734375 
Q 63.671875 47.65625 56.25 40.625 
Q 67.96875 34.765625 79.296875 33.59375 
Q 76.5625 30.078125 74.609375 26.171875 
Q 60.15625 30.46875 50.390625 36.71875 
Q 39.0625 29.296875 26.171875 25.78125 
Q 25 29.296875 21.875 32.421875 
Q 34.375 34.375 44.921875 40.625 
Q 39.453125 45.703125 37.109375 49.21875 
Q 33.59375 45.3125 29.6875 41.40625 
Q 26.953125 44.53125 23.828125 46.09375 
Q 30.46875 51.5625 35.15625 58.390625 
Q 39.84375 65.234375 41.796875 69.921875 
Q 45.703125 67.96875 50.390625 66.40625 
z
M 38.28125 19.921875 
Q 55.46875 14.84375 64.0625 11.328125 
Q 62.109375 8.203125 60.15625 4.6875 
Q 44.140625 11.328125 35.546875 13.28125 
Q 37.109375 16.40625 38.28125 19.921875 
z
M 45.703125 32.03125 
Q 58.984375 26.5625 63.671875 25 
Q 61.71875 21.875 60.15625 17.96875 
Q 46.875 24.21875 42.1875 25.78125 
Q 44.140625 28.515625 45.703125 32.03125 
z
M 41.015625 53.90625 
Q 46.875 47.265625 51.171875 44.53125 
Q 56.25 48.4375 60.546875 55.078125 
L 41.796875 55.078125 
L 41.015625 53.90625 
z
" id="SimHei-22270"/>
     </defs>
     <use xlink:href="#SimHei-112"/>
     <use x="50" xlink:href="#SimHei-121"/>
     <use x="100" xlink:href="#SimHei-116"/>
     <use x="150" xlink:href="#SimHei-104"/>
     <use x="200" xlink:href="#SimHei-111"/>
     <use x="250" xlink:href="#SimHei-110"/>
     <use x="300" xlink:href="#SimHei-46"/>
     <use x="350" xlink:href="#SimHei-120"/>
     <use x="400" xlink:href="#SimHei-108"/>
     <use x="450" xlink:href="#SimHei-115"/>
     <use x="500" xlink:href="#SimHei-120"/>
     <use x="550" xlink:href="#SimHei-23398"/>
     <use x="650" xlink:href="#SimHei-21382"/>
     <use x="750" xlink:href="#SimHei-35201"/>
     <use x="850" xlink:href="#SimHei-27714"/>
     <use x="950" xlink:href="#SimHei-39292"/>
     <use x="1050" xlink:href="#SimHei-29366"/>
     <use x="1150" xlink:href="#SimHei-22270"/>
    </g>
   </g>
  </g>
 </g>
</svg>
