<?xml version="1.0" encoding="utf-8" standalone="no"?>
<!DOCTYPE svg PUBLIC "-//W3C//DTD SVG 1.1//EN"
  "http://www.w3.org/Graphics/SVG/1.1/DTD/svg11.dtd">
<!-- Created with matplotlib (https://matplotlib.org/) -->
<svg height="432pt" version="1.1" viewBox="0 0 864 432" width="864pt" xmlns="http://www.w3.org/2000/svg" xmlns:xlink="http://www.w3.org/1999/xlink">
 <metadata>
  <rdf:RDF xmlns:cc="http://creativecommons.org/ns#" xmlns:dc="http://purl.org/dc/elements/1.1/" xmlns:rdf="http://www.w3.org/1999/02/22-rdf-syntax-ns#">
   <cc:Work>
    <dc:type rdf:resource="http://purl.org/dc/dcmitype/StillImage"/>
    <dc:date>2021-06-22T20:25:17.255094</dc:date>
    <dc:format>image/svg+xml</dc:format>
    <dc:creator>
     <cc:Agent>
      <dc:title>Matplotlib v3.3.0, https://matplotlib.org/</dc:title>
     </cc:Agent>
    </dc:creator>
   </cc:Work>
  </rdf:RDF>
 </metadata>
 <defs>
  <style type="text/css">*{stroke-linecap:butt;stroke-linejoin:round;}</style>
 </defs>
 <g id="figure_1">
  <g id="patch_1">
   <path d="M 0 432 
L 864 432 
L 864 0 
L 0 0 
z
" style="fill:#ffffff;"/>
  </g>
  <g id="axes_1">
   <g id="patch_2">
    <path d="M 108 384.48 
L 777.6 384.48 
L 777.6 51.84 
L 108 51.84 
z
" style="fill:#ffffff;"/>
   </g>
   <g id="patch_3">
    <path clip-path="url(#paa1f0fd1d0)" d="M 138.436364 384.48 
L 200.86993 384.48 
L 200.86993 67.68 
L 138.436364 67.68 
z
" style="fill:#1f77b4;"/>
   </g>
   <g id="patch_4">
    <path clip-path="url(#paa1f0fd1d0)" d="M 216.478322 384.48 
L 278.911888 384.48 
L 278.911888 130.801805 
L 216.478322 130.801805 
z
" style="fill:#1f77b4;"/>
   </g>
   <g id="patch_5">
    <path clip-path="url(#paa1f0fd1d0)" d="M 294.52028 384.48 
L 356.953846 384.48 
L 356.953846 215.956692 
L 294.52028 215.956692 
z
" style="fill:#1f77b4;"/>
   </g>
   <g id="patch_6">
    <path clip-path="url(#paa1f0fd1d0)" d="M 372.562238 384.48 
L 434.995804 384.48 
L 434.995804 335.649925 
L 372.562238 335.649925 
z
" style="fill:#1f77b4;"/>
   </g>
   <g id="patch_7">
    <path clip-path="url(#paa1f0fd1d0)" d="M 450.604196 384.48 
L 513.037762 384.48 
L 513.037762 338.03188 
L 450.604196 338.03188 
z
" style="fill:#1f77b4;"/>
   </g>
   <g id="patch_8">
    <path clip-path="url(#paa1f0fd1d0)" d="M 528.646154 384.48 
L 591.07972 384.48 
L 591.07972 367.806316 
L 528.646154 367.806316 
z
" style="fill:#1f77b4;"/>
   </g>
   <g id="patch_9">
    <path clip-path="url(#paa1f0fd1d0)" d="M 606.688112 384.48 
L 669.121678 384.48 
L 669.121678 382.098045 
L 606.688112 382.098045 
z
" style="fill:#1f77b4;"/>
   </g>
   <g id="patch_10">
    <path clip-path="url(#paa1f0fd1d0)" d="M 684.73007 384.48 
L 747.163636 384.48 
L 747.163636 383.289023 
L 684.73007 383.289023 
z
" style="fill:#1f77b4;"/>
   </g>
   <g id="matplotlib.axis_1">
    <g id="xtick_1">
     <g id="line2d_1">
      <defs>
       <path d="M 0 0 
L 0 3.5 
" id="mc9123ec2a7" style="stroke:#000000;stroke-width:0.8;"/>
      </defs>
      <g>
       <use style="stroke:#000000;stroke-width:0.8;" x="169.653147" xlink:href="#mc9123ec2a7" y="384.48"/>
      </g>
     </g>
     <g id="text_1">
      <!-- 3-4年经验 -->
      <g transform="translate(147.153147 399.526875)scale(0.1 -0.1)">
       <defs>
        <path d="M 3.90625 19.140625 
L 10.9375 20.3125 
Q 12.5 15.234375 16.015625 11.90625 
Q 19.53125 8.59375 24.796875 8.78125 
Q 30.078125 8.984375 33.203125 13.078125 
Q 36.328125 17.1875 35.9375 22.453125 
Q 35.546875 27.734375 31.828125 30.65625 
Q 28.125 33.59375 19.921875 34.765625 
L 19.921875 39.84375 
Q 28.125 40.625 31.828125 44.140625 
Q 35.546875 47.65625 35.15625 53.3125 
Q 34.765625 58.984375 30.078125 61.515625 
Q 25.390625 64.0625 20.109375 62.109375 
Q 14.84375 60.15625 11.71875 51.171875 
L 4.6875 52.34375 
Q 7.03125 59.375 11.125 64.0625 
Q 15.234375 68.75 22.265625 69.53125 
Q 29.296875 70.3125 34.5625 67.765625 
Q 39.84375 65.234375 41.984375 59.953125 
Q 44.140625 54.6875 42.578125 48.4375 
Q 41.015625 42.1875 33.59375 37.5 
Q 39.0625 35.15625 41.984375 30.46875 
Q 44.921875 25.78125 43.9375 18.15625 
Q 42.96875 10.546875 37.109375 5.859375 
Q 31.25 1.171875 23.828125 1.359375 
Q 16.40625 1.5625 10.9375 6.046875 
Q 5.46875 10.546875 3.90625 19.140625 
z
" id="SimHei-51"/>
        <path d="M 46.484375 33.203125 
L 1.953125 33.203125 
L 1.953125 39.453125 
L 46.484375 39.453125 
z
" id="SimHei-45"/>
        <path d="M 31.25 17.1875 
L 1.171875 17.1875 
L 1.171875 23.828125 
L 32.8125 69.53125 
L 38.671875 69.53125 
L 38.671875 23.828125 
L 48.046875 23.828125 
L 48.046875 17.1875 
L 38.671875 17.1875 
L 38.671875 2.34375 
L 31.25 2.34375 
z
M 31.25 23.828125 
L 31.25 54.6875 
L 9.375 23.828125 
z
" id="SimHei-52"/>
        <path d="M 5.46875 45.703125 
Q 14.0625 53.90625 21.484375 65.625 
Q 28.90625 77.34375 29.6875 82.421875 
Q 35.546875 80.078125 40.625 78.90625 
Q 37.109375 75.390625 32.8125 67.578125 
L 72.265625 67.578125 
Q 80.859375 67.578125 89.84375 67.96875 
L 89.84375 61.328125 
Q 81.640625 61.71875 72.265625 61.71875 
L 59.375 61.71875 
L 59.375 45.703125 
Q 74.21875 45.703125 85.546875 46.09375 
L 85.546875 39.453125 
Q 73.828125 39.84375 59.375 39.84375 
L 59.375 21.484375 
L 79.296875 21.484375 
Q 87.890625 21.484375 95.3125 21.875 
L 95.3125 15.234375 
Q 88.28125 15.625 79.296875 15.625 
L 59.375 15.625 
L 59.375 6.640625 
Q 59.375 -2.34375 59.765625 -9.765625 
L 51.171875 -9.765625 
Q 51.5625 -2.34375 51.5625 5.859375 
L 51.5625 15.625 
L 25 15.625 
Q 14.0625 15.625 4.296875 15.234375 
L 4.296875 21.875 
Q 13.671875 21.484375 22.65625 21.484375 
Q 22.65625 36.71875 22.265625 45.703125 
L 51.5625 45.703125 
L 51.5625 61.71875 
L 29.296875 61.71875 
Q 21.09375 49.21875 14.453125 41.40625 
Q 10.15625 44.921875 5.46875 45.703125 
z
M 51.5625 21.484375 
L 51.5625 39.84375 
L 30.078125 39.84375 
L 30.078125 21.484375 
z
" id="SimHei-24180"/>
        <path d="M 31.640625 74.21875 
Q 29.296875 71.09375 25.78125 65.234375 
Q 22.265625 59.375 14.453125 47.65625 
Q 17.1875 47.65625 29.6875 48.4375 
Q 33.984375 54.6875 37.109375 61.328125 
Q 40.234375 58.203125 44.53125 56.640625 
Q 40.625 51.953125 35.15625 44.53125 
Q 29.6875 37.109375 18.75 23.828125 
Q 33.984375 25.78125 40.625 27.34375 
Q 40.234375 25 40.234375 20.703125 
Q 36.71875 19.921875 27.34375 18.75 
Q 17.96875 17.578125 9.765625 15.625 
Q 9.375 18.359375 7.03125 22.65625 
Q 11.328125 24.609375 15.8125 29.6875 
Q 20.3125 34.765625 25.390625 42.1875 
Q 21.09375 42.1875 16.203125 41.59375 
Q 11.328125 41.015625 8.203125 40.234375 
Q 7.421875 42.96875 5.078125 47.265625 
Q 9.375 50 14.84375 59.375 
Q 20.3125 68.75 23.828125 78.515625 
Q 26.5625 76.171875 31.640625 74.21875 
z
M 76.953125 29.296875 
Q 83.203125 29.296875 88.671875 29.6875 
L 88.671875 22.65625 
Q 83.59375 23.046875 77.34375 23.046875 
L 71.09375 23.046875 
L 71.09375 0 
L 82.421875 0 
Q 87.890625 0 94.140625 0.390625 
L 94.140625 -6.640625 
Q 87.890625 -6.25 82.421875 -6.25 
L 51.953125 -6.25 
Q 46.875 -6.25 38.671875 -6.640625 
L 38.671875 0.390625 
Q 46.875 0 51.953125 0 
L 63.671875 0 
L 63.671875 23.046875 
L 58.203125 23.046875 
Q 51.5625 23.046875 45.3125 22.65625 
L 45.3125 29.6875 
Q 51.5625 29.296875 58.203125 29.296875 
z
M 85.9375 72.65625 
Q 83.984375 68.75 80.859375 64.0625 
Q 77.734375 59.375 72.65625 53.515625 
Q 89.84375 42.1875 95.3125 38.671875 
Q 92.1875 35.546875 89.453125 32.03125 
Q 84.375 37.109375 68.75 48.828125 
Q 63.671875 44.140625 58.390625 40.421875 
Q 53.125 36.71875 44.140625 31.25 
Q 41.796875 35.15625 38.671875 37.890625 
Q 45.3125 40.234375 50.578125 43.359375 
Q 55.859375 46.484375 62.890625 53.125 
Q 69.921875 59.765625 74.21875 66.40625 
L 57.421875 66.40625 
Q 50.390625 66.40625 44.140625 66.015625 
L 44.140625 73.046875 
Q 50.390625 72.65625 57.421875 72.65625 
z
M 41.40625 10.15625 
Q 41.40625 7.8125 41.796875 3.515625 
Q 34.765625 2.34375 25.578125 0.390625 
Q 16.40625 -1.5625 8.984375 -3.515625 
Q 7.03125 1.171875 5.46875 4.6875 
Q 16.40625 5.859375 21.875 6.828125 
Q 27.34375 7.8125 41.40625 10.15625 
z
" id="SimHei-32463"/>
        <path d="M 35.9375 73.828125 
Q 35.15625 70.3125 34.765625 63.671875 
L 32.03125 33.203125 
L 39.453125 33.203125 
Q 39.0625 30.078125 38.671875 22.65625 
L 37.109375 1.171875 
Q 37.109375 -7.03125 32.421875 -8.203125 
Q 27.734375 -9.375 19.53125 -10.546875 
Q 18.359375 -5.078125 16.40625 -1.5625 
Q 24.609375 -1.5625 27.140625 -1.359375 
Q 29.6875 -1.171875 30.46875 2.34375 
L 31.640625 26.5625 
L 8.59375 26.5625 
Q 8.984375 33.984375 9.171875 42.765625 
Q 9.375 51.5625 9.375 59.375 
L 17.1875 59.375 
Q 16.40625 55.078125 16.015625 48.234375 
Q 15.625 41.40625 15.625 33.203125 
L 25.390625 33.203125 
L 28.125 67.578125 
L 17.578125 67.578125 
Q 11.328125 67.578125 5.46875 67.1875 
L 5.46875 74.21875 
Q 11.328125 73.828125 17.578125 73.828125 
z
M 67.578125 76.171875 
Q 73.828125 64.453125 80.46875 58.984375 
Q 87.109375 53.515625 96.09375 50.390625 
Q 92.578125 47.265625 90.625 42.578125 
Q 85.15625 45.703125 80.078125 50 
L 80.078125 43.359375 
Q 75 43.75 65.625 43.75 
Q 56.25 43.75 50.390625 43.359375 
L 50.390625 49.609375 
Q 48.046875 46.484375 43.75 41.40625 
Q 40.234375 44.921875 36.328125 46.875 
Q 42.578125 51.171875 45.890625 55.46875 
Q 49.21875 59.765625 51.75 64.453125 
Q 54.296875 69.140625 56.046875 73.046875 
Q 57.8125 76.953125 58.984375 81.640625 
Q 64.0625 80.46875 69.53125 79.296875 
z
M 87.5 33.59375 
Q 85.546875 31.25 84.375 27.140625 
Q 83.203125 23.046875 80.65625 14.25 
Q 78.125 5.46875 76.5625 0.390625 
L 82.03125 0.390625 
Q 84.765625 0.390625 90.625 0.78125 
L 90.625 -6.25 
Q 85.546875 -5.859375 82.03125 -5.859375 
L 51.953125 -5.859375 
Q 44.921875 -5.859375 41.796875 -6.25 
L 41.796875 0.78125 
Q 46.484375 0.390625 52.34375 0.390625 
L 69.921875 0.390625 
Q 73.046875 8.984375 75 17.96875 
L 78.90625 35.9375 
Q 82.03125 34.765625 87.5 33.59375 
z
M 79.6875 50.390625 
Q 75 53.90625 71.09375 58.984375 
Q 67.1875 64.0625 63.28125 71.875 
Q 60.15625 65.625 57.609375 61.125 
Q 55.078125 56.640625 50.78125 50.390625 
z
M 50.78125 33.984375 
Q 52.34375 28.515625 54.09375 21.484375 
Q 55.859375 14.453125 57.421875 8.59375 
Q 53.90625 8.203125 50.78125 6.640625 
Q 49.609375 14.0625 48.234375 19.140625 
Q 46.875 24.21875 44.53125 32.03125 
Q 47.65625 33.203125 50.78125 33.984375 
z
M 27.734375 17.578125 
Q 27.34375 14.84375 26.953125 10.9375 
Q 21.09375 9.765625 17.375 8.984375 
Q 13.671875 8.203125 5.859375 5.859375 
Q 4.6875 10.15625 3.125 14.453125 
Q 8.59375 14.84375 14.453125 15.625 
Q 20.3125 16.40625 27.734375 17.578125 
z
M 67.1875 25.78125 
Q 67.96875 20.703125 69.140625 12.890625 
L 62.890625 11.328125 
Q 61.328125 19.921875 60.546875 24.40625 
Q 59.765625 28.90625 58.59375 34.765625 
Q 62.109375 35.546875 65.625 35.9375 
z
" id="SimHei-39564"/>
       </defs>
       <use xlink:href="#SimHei-51"/>
       <use x="50" xlink:href="#SimHei-45"/>
       <use x="100" xlink:href="#SimHei-52"/>
       <use x="150" xlink:href="#SimHei-24180"/>
       <use x="250" xlink:href="#SimHei-32463"/>
       <use x="350" xlink:href="#SimHei-39564"/>
      </g>
     </g>
    </g>
    <g id="xtick_2">
     <g id="line2d_2">
      <g>
       <use style="stroke:#000000;stroke-width:0.8;" x="247.695105" xlink:href="#mc9123ec2a7" y="384.48"/>
      </g>
     </g>
     <g id="text_2">
      <!-- 2年经验 -->
      <g transform="translate(230.195105 399.526875)scale(0.1 -0.1)">
       <defs>
        <path d="M 4.6875 3.90625 
Q 5.078125 9.765625 10.15625 14.453125 
Q 15.234375 19.140625 23.046875 29.09375 
Q 30.859375 39.0625 33.203125 44.53125 
Q 35.546875 50 34.953125 53.90625 
Q 34.375 57.8125 31.25 60.34375 
Q 28.125 62.890625 24.015625 62.5 
Q 19.921875 62.109375 16.203125 59.375 
Q 12.5 56.640625 10.546875 51.171875 
L 3.125 52.34375 
Q 6.25 61.328125 11.125 65.421875 
Q 16.015625 69.53125 22.65625 69.921875 
Q 26.5625 70.3125 29.6875 69.71875 
Q 32.8125 69.140625 36.125 66.984375 
Q 39.453125 64.84375 41.59375 60.546875 
Q 43.75 56.25 43.15625 50.1875 
Q 42.578125 44.140625 37.109375 35.734375 
Q 31.640625 27.34375 16.015625 9.375 
L 44.140625 9.375 
L 44.140625 2.34375 
L 4.6875 2.34375 
z
" id="SimHei-50"/>
       </defs>
       <use xlink:href="#SimHei-50"/>
       <use x="50" xlink:href="#SimHei-24180"/>
       <use x="150" xlink:href="#SimHei-32463"/>
       <use x="250" xlink:href="#SimHei-39564"/>
      </g>
     </g>
    </g>
    <g id="xtick_3">
     <g id="line2d_3">
      <g>
       <use style="stroke:#000000;stroke-width:0.8;" x="325.737063" xlink:href="#mc9123ec2a7" y="384.48"/>
      </g>
     </g>
     <g id="text_3">
      <!-- 1年经验 -->
      <g transform="translate(308.237063 399.526875)scale(0.1 -0.1)">
       <defs>
        <path d="M 21.875 56.25 
Q 16.796875 51.171875 8.984375 46.484375 
L 8.984375 53.90625 
Q 18.75 60.546875 25 69.53125 
L 29.6875 69.53125 
L 29.6875 2.34375 
L 21.875 2.34375 
z
" id="SimHei-49"/>
       </defs>
       <use xlink:href="#SimHei-49"/>
       <use x="50" xlink:href="#SimHei-24180"/>
       <use x="150" xlink:href="#SimHei-32463"/>
       <use x="250" xlink:href="#SimHei-39564"/>
      </g>
     </g>
    </g>
    <g id="xtick_4">
     <g id="line2d_4">
      <g>
       <use style="stroke:#000000;stroke-width:0.8;" x="403.779021" xlink:href="#mc9123ec2a7" y="384.48"/>
      </g>
     </g>
     <g id="text_4">
      <!-- 5-7年经验 -->
      <g transform="translate(381.279021 399.526875)scale(0.1 -0.1)">
       <defs>
        <path d="M 8.59375 20.703125 
Q 11.328125 10.15625 17.96875 8.984375 
Q 24.609375 7.8125 28.703125 10.34375 
Q 32.8125 12.890625 34.5625 16.984375 
Q 36.328125 21.09375 36.125 26.171875 
Q 35.9375 31.25 33.390625 34.765625 
Q 30.859375 38.28125 26.953125 39.453125 
Q 23.046875 40.625 18.15625 39.453125 
Q 13.28125 38.28125 10.15625 33.984375 
L 3.515625 34.765625 
Q 4.296875 37.109375 10.9375 68.359375 
L 41.796875 68.359375 
L 41.796875 61.328125 
L 16.796875 61.328125 
Q 14.84375 50.78125 12.890625 44.53125 
Q 18.75 47.265625 23.828125 47.0625 
Q 28.90625 46.875 33.59375 44.71875 
Q 38.28125 42.578125 40.421875 38.859375 
Q 42.578125 35.15625 43.546875 31.4375 
Q 44.53125 27.734375 44.328125 23.4375 
Q 44.140625 19.140625 42.578125 14.640625 
Q 41.015625 10.15625 37.890625 7.21875 
Q 34.765625 4.296875 30.265625 2.53125 
Q 25.78125 0.78125 19.921875 1.171875 
Q 14.0625 1.5625 8.78125 5.46875 
Q 3.515625 9.375 1.5625 18.75 
z
" id="SimHei-53"/>
        <path d="M 13.28125 2.34375 
Q 20.3125 32.03125 37.890625 61.328125 
L 4.296875 61.328125 
L 4.296875 68.359375 
L 46.09375 68.359375 
L 46.09375 61.71875 
Q 27.734375 32.03125 21.875 2.34375 
L 13.28125 2.34375 
z
" id="SimHei-55"/>
       </defs>
       <use xlink:href="#SimHei-53"/>
       <use x="50" xlink:href="#SimHei-45"/>
       <use x="100" xlink:href="#SimHei-55"/>
       <use x="150" xlink:href="#SimHei-24180"/>
       <use x="250" xlink:href="#SimHei-32463"/>
       <use x="350" xlink:href="#SimHei-39564"/>
      </g>
     </g>
    </g>
    <g id="xtick_5">
     <g id="line2d_5">
      <g>
       <use style="stroke:#000000;stroke-width:0.8;" x="481.820979" xlink:href="#mc9123ec2a7" y="384.48"/>
      </g>
     </g>
     <g id="text_5">
      <!-- 无需经验 -->
      <g transform="translate(461.820979 399.44875)scale(0.1 -0.1)">
       <defs>
        <path d="M 67.96875 73.828125 
Q 76.171875 73.828125 82.8125 74.21875 
L 82.8125 66.796875 
Q 76.953125 67.1875 67.96875 67.1875 
L 49.609375 67.1875 
Q 49.609375 54.296875 48.828125 43.75 
L 78.90625 43.75 
Q 85.9375 43.75 91.796875 44.140625 
L 91.796875 36.71875 
Q 85.9375 37.109375 79.296875 37.109375 
L 61.71875 37.109375 
L 61.71875 6.640625 
Q 61.71875 1.5625 67.578125 1.5625 
L 80.859375 1.5625 
Q 85.15625 1.5625 85.546875 13.28125 
Q 89.453125 10.9375 94.140625 9.765625 
Q 92.1875 -5.46875 85.15625 -5.46875 
L 63.671875 -5.46875 
Q 54.6875 -5.078125 54.6875 4.6875 
L 54.6875 37.109375 
L 48.046875 37.109375 
Q 44.921875 22.265625 40.421875 14.640625 
Q 35.9375 7.03125 30.078125 1.75 
Q 24.21875 -3.515625 12.5 -10.15625 
Q 10.546875 -5.859375 5.859375 -3.515625 
Q 15.234375 0.78125 21.09375 5.265625 
Q 26.953125 9.765625 32.21875 16.40625 
Q 37.5 23.046875 40.625 37.109375 
L 23.4375 37.109375 
Q 13.671875 37.109375 9.375 36.71875 
L 9.375 44.140625 
Q 13.671875 43.75 23.4375 43.75 
L 41.40625 43.75 
Q 41.796875 55.46875 41.796875 67.1875 
L 31.25 67.1875 
Q 23.4375 67.1875 16.796875 66.796875 
L 16.796875 74.21875 
Q 23.4375 73.828125 31.25 73.828125 
z
" id="SimHei-26080"/>
        <path d="M 80.46875 32.8125 
Q 85.9375 32.8125 93.359375 33.203125 
L 93.359375 26.5625 
Q 85.9375 26.953125 80.46875 26.953125 
L 53.515625 26.953125 
Q 51.5625 23.4375 50.78125 19.921875 
L 87.5 19.921875 
Q 87.109375 14.84375 87.109375 10.9375 
L 87.109375 -0.78125 
Q 87.109375 -5.46875 84.765625 -6.828125 
Q 82.421875 -8.203125 74.609375 -9.765625 
Q 74.21875 -6.25 71.09375 -1.5625 
Q 77.34375 -1.5625 78.515625 -0.78125 
Q 79.6875 0 79.6875 3.125 
L 79.6875 14.0625 
L 64.453125 14.0625 
L 64.453125 -5.859375 
L 57.03125 -5.859375 
L 57.03125 14.0625 
L 43.359375 14.0625 
L 43.359375 -5.859375 
L 35.9375 -5.859375 
L 35.9375 14.0625 
L 21.09375 14.0625 
L 21.09375 -8.984375 
L 13.671875 -8.984375 
Q 14.0625 -3.515625 14.0625 2.734375 
L 14.0625 8.984375 
Q 14.0625 14.0625 13.671875 19.921875 
L 43.75 19.921875 
Q 44.921875 23.4375 45.703125 26.953125 
L 21.09375 26.953125 
Q 14.453125 26.953125 8.203125 26.5625 
L 8.203125 33.203125 
Q 14.0625 32.8125 20.703125 32.8125 
z
M 73.4375 79.296875 
Q 79.296875 79.296875 86.71875 79.6875 
L 86.71875 73.046875 
Q 79.296875 73.4375 73.4375 73.4375 
L 54.296875 73.4375 
L 54.296875 66.796875 
L 93.359375 66.796875 
L 93.359375 48.4375 
L 85.9375 48.4375 
L 85.9375 60.9375 
L 54.296875 60.9375 
L 54.296875 50 
Q 54.296875 43.359375 54.6875 37.890625 
L 46.484375 37.890625 
Q 46.875 42.96875 46.875 49.609375 
L 46.875 60.9375 
L 14.84375 60.9375 
L 14.84375 48.4375 
L 7.03125 48.4375 
Q 7.03125 52.734375 7.21875 57.03125 
Q 7.421875 61.328125 7.03125 66.796875 
L 46.875 66.796875 
L 46.875 73.4375 
L 27.734375 73.4375 
Q 21.875 73.4375 16.015625 73.046875 
L 16.015625 79.6875 
Q 21.875 79.296875 27.34375 79.296875 
z
M 38.671875 38.28125 
L 19.53125 38.28125 
L 19.53125 43.75 
L 38.671875 43.75 
z
M 39.0625 49.21875 
L 20.703125 49.21875 
L 20.703125 54.6875 
L 39.0625 54.6875 
z
M 78.125 49.609375 
L 59.765625 49.609375 
L 59.765625 55.078125 
L 78.125 55.078125 
z
M 78.515625 39.0625 
L 60.15625 39.0625 
L 60.15625 44.53125 
L 78.515625 44.53125 
z
" id="SimHei-38656"/>
       </defs>
       <use xlink:href="#SimHei-26080"/>
       <use x="100" xlink:href="#SimHei-38656"/>
       <use x="200" xlink:href="#SimHei-32463"/>
       <use x="300" xlink:href="#SimHei-39564"/>
      </g>
     </g>
    </g>
    <g id="xtick_6">
     <g id="line2d_6">
      <g>
       <use style="stroke:#000000;stroke-width:0.8;" x="559.862937" xlink:href="#mc9123ec2a7" y="384.48"/>
      </g>
     </g>
     <g id="text_6">
      <!-- 没有 -->
      <g transform="translate(549.862937 399.331563)scale(0.1 -0.1)">
       <defs>
        <path d="M 85.15625 37.109375 
Q 82.8125 30.46875 78.703125 23.046875 
Q 74.609375 15.625 68.359375 8.984375 
Q 72.65625 5.859375 81.046875 2.53125 
Q 89.453125 -0.78125 94.140625 -1.5625 
Q 91.40625 -4.6875 89.0625 -9.375 
Q 80.859375 -6.25 74.796875 -3.125 
Q 68.75 0 62.890625 4.296875 
Q 51.953125 -3.90625 34.375 -9.375 
Q 33.203125 -5.46875 29.6875 -1.5625 
Q 45.703125 0.78125 57.421875 8.59375 
Q 47.65625 17.578125 42.96875 30.859375 
Q 40.625 30.859375 37.890625 30.859375 
L 37.890625 37.5 
Q 44.921875 37.109375 51.171875 37.109375 
z
M 78.515625 75.78125 
Q 78.125 69.921875 78.125 64.0625 
L 78.125 53.90625 
Q 78.125 50.390625 83.59375 50.390625 
L 94.53125 50.78125 
Q 92.1875 46.484375 92.578125 43.75 
L 78.90625 43.75 
Q 71.484375 43.75 70.703125 51.171875 
L 70.703125 69.53125 
L 51.171875 69.53125 
Q 51.171875 58.59375 48.4375 52.140625 
Q 45.703125 45.703125 37.109375 38.671875 
Q 35.546875 41.40625 31.25 44.53125 
Q 41.40625 49.609375 42.96875 58.203125 
Q 44.53125 66.796875 43.75 75.78125 
L 78.515625 75.78125 
z
M 6.640625 -2.34375 
Q 12.5 5.078125 17.375 14.453125 
Q 22.265625 23.828125 25 31.640625 
Q 28.515625 28.90625 32.03125 26.5625 
Q 29.296875 22.65625 24.21875 12.109375 
Q 19.140625 1.5625 14.84375 -7.8125 
Q 10.15625 -3.90625 6.640625 -2.34375 
z
M 50.78125 31.25 
Q 54.296875 20.703125 62.890625 12.890625 
Q 69.921875 19.53125 74.609375 31.25 
L 51.171875 31.25 
z
M 17.96875 80.078125 
Q 26.5625 74.21875 36.328125 66.015625 
Q 32.421875 63.28125 30.46875 60.15625 
Q 21.875 68.359375 12.890625 74.21875 
Q 15.625 76.953125 17.96875 80.078125 
z
M 11.328125 58.59375 
Q 19.921875 52.34375 28.515625 44.921875 
Q 25.78125 42.578125 22.65625 39.0625 
Q 15.625 46.484375 6.25 52.34375 
Q 9.375 55.859375 11.328125 58.59375 
z
" id="SimHei-27809"/>
        <path d="M 4.296875 25.390625 
Q 13.28125 30.859375 21.875 39.640625 
Q 30.46875 48.4375 37.5 61.328125 
L 23.4375 61.328125 
Q 17.96875 61.328125 9.765625 60.9375 
L 9.765625 68.359375 
Q 19.921875 67.96875 25 67.96875 
L 39.84375 67.96875 
Q 42.96875 77.34375 43.359375 81.640625 
Q 49.21875 80.078125 52.734375 79.296875 
Q 51.5625 78.125 48.828125 67.96875 
L 80.46875 67.96875 
Q 87.109375 67.96875 94.140625 68.359375 
L 94.140625 60.9375 
Q 87.109375 61.328125 81.640625 61.328125 
L 46.484375 61.328125 
Q 43.75 56.25 40.625 51.171875 
L 85.546875 51.171875 
Q 85.15625 41.40625 85.15625 33.59375 
L 85.15625 1.953125 
Q 85.15625 -3.515625 82.03125 -6.046875 
Q 78.90625 -8.59375 68.75 -9.375 
Q 68.359375 -5.078125 66.015625 0 
Q 71.875 -0.78125 74.609375 -0.390625 
Q 77.34375 0 77.34375 3.90625 
L 77.34375 11.71875 
L 36.71875 11.71875 
L 36.71875 -8.984375 
L 28.125 -8.984375 
Q 28.515625 0.78125 28.515625 7.8125 
L 28.515625 35.546875 
Q 20.3125 26.171875 11.328125 19.140625 
Q 9.765625 21.875 4.296875 25.390625 
z
M 77.34375 33.984375 
L 77.34375 44.921875 
L 36.71875 44.921875 
L 36.71875 33.984375 
z
M 77.34375 17.96875 
L 77.34375 27.734375 
L 36.71875 27.734375 
L 36.71875 17.96875 
z
" id="SimHei-26377"/>
       </defs>
       <use xlink:href="#SimHei-27809"/>
       <use x="100" xlink:href="#SimHei-26377"/>
      </g>
     </g>
    </g>
    <g id="xtick_7">
     <g id="line2d_7">
      <g>
       <use style="stroke:#000000;stroke-width:0.8;" x="637.904895" xlink:href="#mc9123ec2a7" y="384.48"/>
      </g>
     </g>
     <g id="text_7">
      <!-- 8-9年经验 -->
      <g transform="translate(615.404895 399.526875)scale(0.1 -0.1)">
       <defs>
        <path d="M 2.734375 16.796875 
Q 2.734375 26.171875 5.078125 30.65625 
Q 7.421875 35.15625 12.890625 37.890625 
Q 8.203125 40.625 6.640625 43.9375 
Q 5.078125 47.265625 4.875 51.5625 
Q 4.6875 55.859375 6.046875 58.984375 
Q 7.421875 62.109375 10.15625 64.84375 
Q 12.890625 67.578125 16.203125 68.546875 
Q 19.53125 69.53125 23.4375 69.53125 
Q 27.34375 69.53125 30.46875 68.75 
Q 33.59375 67.96875 37.109375 65.421875 
Q 40.625 62.890625 42.1875 58.203125 
Q 43.75 53.515625 41.984375 47.265625 
Q 40.234375 41.015625 32.8125 37.5 
Q 39.453125 35.546875 42.1875 31.4375 
Q 44.921875 27.34375 44.921875 21.484375 
Q 44.921875 15.625 43.15625 12.109375 
Q 41.40625 8.59375 39.25 6.25 
Q 37.109375 3.90625 33.390625 2.53125 
Q 29.6875 1.171875 24.015625 1.171875 
Q 18.359375 1.171875 14.25 2.53125 
Q 10.15625 3.90625 7.421875 6.640625 
Q 4.6875 9.375 3.703125 13.078125 
Q 2.734375 16.796875 2.734375 26.171875 
z
M 10.9375 26.5625 
Q 10.546875 17.1875 12.296875 13.671875 
Q 14.0625 10.15625 18.75 9.171875 
Q 23.4375 8.203125 28.515625 9.375 
Q 33.59375 10.546875 35.546875 14.84375 
Q 37.5 19.140625 36.90625 23.4375 
Q 36.328125 27.734375 32.03125 30.65625 
Q 27.734375 33.59375 22.65625 33.203125 
Q 17.578125 32.8125 14.25 29.6875 
Q 10.9375 26.5625 10.546875 17.1875 
z
M 12.109375 56.25 
Q 12.109375 48.4375 14.84375 44.921875 
Q 17.578125 41.40625 23.4375 41.40625 
Q 29.296875 41.40625 32.21875 44.921875 
Q 35.15625 48.4375 34.953125 53.3125 
Q 34.765625 58.203125 31.4375 60.546875 
Q 28.125 62.890625 22.453125 62.5 
Q 16.796875 62.109375 14.453125 59.171875 
Q 12.109375 56.25 12.109375 48.4375 
z
" id="SimHei-56"/>
        <path d="M 12.5 1.171875 
Q 21.09375 15.625 26.5625 27.34375 
Q 16.796875 25.78125 10.34375 29.875 
Q 3.90625 33.984375 2.53125 41.015625 
Q 1.171875 48.046875 2.734375 53.703125 
Q 4.296875 59.375 7.609375 63.078125 
Q 10.9375 66.796875 15.625 68.359375 
Q 20.3125 69.921875 24.015625 69.921875 
Q 27.734375 69.921875 31.640625 68.359375 
Q 35.546875 66.796875 38.671875 63.671875 
Q 41.796875 60.546875 42.96875 57.21875 
Q 44.140625 53.90625 44.140625 48.625 
Q 44.140625 43.359375 40.234375 35.15625 
Q 36.328125 26.953125 21.09375 1.171875 
z
M 9.765625 50 
Q 10.9375 39.84375 14.640625 36.515625 
Q 18.359375 33.203125 22.65625 33.59375 
Q 26.953125 33.984375 29.484375 35.9375 
Q 32.03125 37.890625 34.375 42.578125 
Q 35.9375 48.4375 35.15625 52.53125 
Q 34.375 56.640625 31.046875 59.375 
Q 27.734375 62.109375 23.828125 62.109375 
Q 21.484375 62.5 17.765625 60.9375 
Q 14.0625 59.375 11.90625 54.6875 
Q 9.765625 50 10.9375 39.84375 
z
" id="SimHei-57"/>
       </defs>
       <use xlink:href="#SimHei-56"/>
       <use x="50" xlink:href="#SimHei-45"/>
       <use x="100" xlink:href="#SimHei-57"/>
       <use x="150" xlink:href="#SimHei-24180"/>
       <use x="250" xlink:href="#SimHei-32463"/>
       <use x="350" xlink:href="#SimHei-39564"/>
      </g>
     </g>
    </g>
    <g id="xtick_8">
     <g id="line2d_8">
      <g>
       <use style="stroke:#000000;stroke-width:0.8;" x="715.946853" xlink:href="#mc9123ec2a7" y="384.48"/>
      </g>
     </g>
     <g id="text_8">
      <!-- 10年以上经验 -->
      <g transform="translate(685.946853 399.565938)scale(0.1 -0.1)">
       <defs>
        <path d="M 3.125 29.296875 
Q 3.90625 50 6.4375 56.046875 
Q 8.984375 62.109375 13.671875 66.015625 
Q 18.359375 69.921875 25.1875 69.921875 
Q 32.03125 69.921875 37.109375 64.25 
Q 42.1875 58.59375 43.75 50 
Q 45.3125 41.40625 44.71875 30.265625 
Q 44.140625 19.140625 40.8125 12.109375 
Q 37.5 5.078125 30.859375 2.34375 
Q 24.21875 -0.390625 17.578125 2.921875 
Q 10.9375 6.25 8.203125 11.71875 
Q 5.46875 17.1875 4.296875 23.234375 
Q 3.125 29.296875 3.90625 50 
z
M 12.890625 52.734375 
Q 10.546875 31.25 12.5 22.84375 
Q 14.453125 14.453125 18.9375 10.9375 
Q 23.4375 7.421875 28.125 9.5625 
Q 32.8125 11.71875 34.953125 18.15625 
Q 37.109375 24.609375 37.109375 32.21875 
Q 37.109375 39.84375 36.515625 46.09375 
Q 35.9375 52.34375 33 57.421875 
Q 30.078125 62.5 25.1875 62.6875 
Q 20.3125 62.890625 16.59375 57.8125 
Q 12.890625 52.734375 10.546875 31.25 
z
" id="SimHei-48"/>
        <path d="M 84.375 74.609375 
Q 82.421875 69.53125 80.65625 51.171875 
Q 78.90625 32.8125 73.046875 21.09375 
Q 89.0625 5.46875 94.921875 -2.34375 
Q 91.40625 -4.6875 87.890625 -7.8125 
Q 80.859375 2.34375 68.359375 14.0625 
Q 53.125 -2.734375 34.375 -10.9375 
Q 30.46875 -5.078125 28.125 -3.125 
Q 44.921875 1.953125 56.640625 13.28125 
Q 68.359375 24.609375 71.09375 43.9375 
Q 73.828125 63.28125 73.4375 76.953125 
Q 80.078125 75.390625 84.375 74.609375 
z
M 41.40625 33.59375 
Q 44.140625 29.296875 47.265625 26.171875 
Q 34.375 16.40625 16.015625 -2.734375 
Q 12.5 1.171875 10.15625 3.125 
Q 13.28125 7.03125 13.28125 11.71875 
L 13.28125 55.078125 
Q 13.28125 60.9375 12.890625 67.96875 
L 21.875 67.96875 
Q 21.484375 65.234375 21.484375 58.984375 
L 21.484375 13.671875 
Q 32.8125 23.828125 41.40625 33.59375 
z
M 38.28125 78.515625 
Q 42.578125 73.828125 47.265625 68.15625 
Q 51.953125 62.5 57.8125 54.296875 
Q 54.296875 51.953125 50.78125 48.828125 
Q 45.703125 57.8125 32.03125 73.4375 
Q 35.15625 75.390625 38.28125 78.515625 
z
" id="SimHei-20197"/>
        <path d="M 50.78125 79.296875 
Q 50.390625 72.65625 50.390625 66.796875 
L 50.390625 50.390625 
L 72.65625 50.390625 
Q 80.46875 50.390625 87.5 50.78125 
L 87.5 42.1875 
Q 79.6875 42.578125 71.875 42.578125 
L 50.390625 42.578125 
L 50.390625 3.125 
L 81.25 3.125 
Q 87.109375 3.125 94.921875 3.515625 
L 94.921875 -4.6875 
Q 87.5 -4.296875 81.25 -4.296875 
L 19.53125 -4.296875 
Q 13.28125 -4.296875 5.46875 -4.6875 
L 5.46875 3.515625 
Q 12.890625 3.125 19.53125 3.125 
L 42.1875 3.125 
L 42.1875 66.40625 
Q 42.1875 72.265625 41.796875 79.296875 
L 50.78125 79.296875 
z
" id="SimHei-19978"/>
       </defs>
       <use xlink:href="#SimHei-49"/>
       <use x="50" xlink:href="#SimHei-48"/>
       <use x="100" xlink:href="#SimHei-24180"/>
       <use x="200" xlink:href="#SimHei-20197"/>
       <use x="300" xlink:href="#SimHei-19978"/>
       <use x="400" xlink:href="#SimHei-32463"/>
       <use x="500" xlink:href="#SimHei-39564"/>
      </g>
     </g>
    </g>
   </g>
   <g id="matplotlib.axis_2">
    <g id="ytick_1">
     <g id="line2d_9">
      <defs>
       <path d="M 0 0 
L -3.5 0 
" id="ma96101881a" style="stroke:#000000;stroke-width:0.8;"/>
      </defs>
      <g>
       <use style="stroke:#000000;stroke-width:0.8;" x="108" xlink:href="#ma96101881a" y="384.48"/>
      </g>
     </g>
     <g id="text_9">
      <!-- 0 -->
      <g transform="translate(96 387.9175)scale(0.1 -0.1)">
       <use xlink:href="#SimHei-48"/>
      </g>
     </g>
    </g>
    <g id="ytick_2">
     <g id="line2d_10">
      <g>
       <use style="stroke:#000000;stroke-width:0.8;" x="108" xlink:href="#ma96101881a" y="324.931128"/>
      </g>
     </g>
     <g id="text_10">
      <!-- 100 -->
      <g transform="translate(86 328.368628)scale(0.1 -0.1)">
       <use xlink:href="#SimHei-49"/>
       <use x="50" xlink:href="#SimHei-48"/>
       <use x="100" xlink:href="#SimHei-48"/>
      </g>
     </g>
    </g>
    <g id="ytick_3">
     <g id="line2d_11">
      <g>
       <use style="stroke:#000000;stroke-width:0.8;" x="108" xlink:href="#ma96101881a" y="265.382256"/>
      </g>
     </g>
     <g id="text_11">
      <!-- 200 -->
      <g transform="translate(86 268.819756)scale(0.1 -0.1)">
       <use xlink:href="#SimHei-50"/>
       <use x="50" xlink:href="#SimHei-48"/>
       <use x="100" xlink:href="#SimHei-48"/>
      </g>
     </g>
    </g>
    <g id="ytick_4">
     <g id="line2d_12">
      <g>
       <use style="stroke:#000000;stroke-width:0.8;" x="108" xlink:href="#ma96101881a" y="205.833383"/>
      </g>
     </g>
     <g id="text_12">
      <!-- 300 -->
      <g transform="translate(86 209.270883)scale(0.1 -0.1)">
       <use xlink:href="#SimHei-51"/>
       <use x="50" xlink:href="#SimHei-48"/>
       <use x="100" xlink:href="#SimHei-48"/>
      </g>
     </g>
    </g>
    <g id="ytick_5">
     <g id="line2d_13">
      <g>
       <use style="stroke:#000000;stroke-width:0.8;" x="108" xlink:href="#ma96101881a" y="146.284511"/>
      </g>
     </g>
     <g id="text_13">
      <!-- 400 -->
      <g transform="translate(86 149.722011)scale(0.1 -0.1)">
       <use xlink:href="#SimHei-52"/>
       <use x="50" xlink:href="#SimHei-48"/>
       <use x="100" xlink:href="#SimHei-48"/>
      </g>
     </g>
    </g>
    <g id="ytick_6">
     <g id="line2d_14">
      <g>
       <use style="stroke:#000000;stroke-width:0.8;" x="108" xlink:href="#ma96101881a" y="86.735639"/>
      </g>
     </g>
     <g id="text_14">
      <!-- 500 -->
      <g transform="translate(86 90.173139)scale(0.1 -0.1)">
       <use xlink:href="#SimHei-53"/>
       <use x="50" xlink:href="#SimHei-48"/>
       <use x="100" xlink:href="#SimHei-48"/>
      </g>
     </g>
    </g>
   </g>
   <g id="patch_11">
    <path d="M 108 384.48 
L 108 51.84 
" style="fill:none;stroke:#000000;stroke-linecap:square;stroke-linejoin:miter;stroke-width:0.8;"/>
   </g>
   <g id="patch_12">
    <path d="M 777.6 384.48 
L 777.6 51.84 
" style="fill:none;stroke:#000000;stroke-linecap:square;stroke-linejoin:miter;stroke-width:0.8;"/>
   </g>
   <g id="patch_13">
    <path d="M 108 384.48 
L 777.6 384.48 
" style="fill:none;stroke:#000000;stroke-linecap:square;stroke-linejoin:miter;stroke-width:0.8;"/>
   </g>
   <g id="patch_14">
    <path d="M 108 51.84 
L 777.6 51.84 
" style="fill:none;stroke:#000000;stroke-linecap:square;stroke-linejoin:miter;stroke-width:0.8;"/>
   </g>
   <g id="text_15">
    <!-- 532 -->
    <g transform="translate(157.946853 66.489023)scale(0.1 -0.1)">
     <use xlink:href="#SimHei-53"/>
     <use x="50" xlink:href="#SimHei-51"/>
     <use x="100" xlink:href="#SimHei-50"/>
    </g>
   </g>
   <g id="text_16">
    <!-- 426 -->
    <g transform="translate(235.988811 129.610827)scale(0.1 -0.1)">
     <defs>
      <path d="M 3.515625 19.53125 
Q 4.296875 30.859375 6.046875 34.765625 
Q 7.8125 38.671875 11.328125 44.53125 
L 27.34375 69.53125 
L 36.328125 69.53125 
L 19.921875 43.75 
Q 30.46875 46.484375 36.71875 42.96875 
Q 42.96875 39.453125 45.109375 34.953125 
Q 47.265625 30.46875 47.453125 25.1875 
Q 47.65625 19.921875 45.890625 14.84375 
Q 44.140625 9.765625 39.640625 5.65625 
Q 35.15625 1.5625 27.140625 1.171875 
Q 19.140625 0.78125 13.46875 4.09375 
Q 7.8125 7.421875 5.65625 13.46875 
Q 3.515625 19.53125 4.296875 30.859375 
z
M 12.5 16.015625 
Q 19.53125 8.59375 25.390625 8.203125 
Q 31.25 7.8125 35.15625 12.109375 
Q 39.0625 16.40625 39.0625 24.609375 
Q 39.0625 32.8125 34.171875 35.9375 
Q 29.296875 39.0625 23.234375 38.28125 
Q 17.1875 37.5 14.453125 32.421875 
Q 11.71875 27.34375 12.109375 21.671875 
Q 12.5 16.015625 19.53125 8.59375 
z
" id="SimHei-54"/>
     </defs>
     <use xlink:href="#SimHei-52"/>
     <use x="50" xlink:href="#SimHei-50"/>
     <use x="100" xlink:href="#SimHei-54"/>
    </g>
   </g>
   <g id="text_17">
    <!-- 283 -->
    <g transform="translate(314.030769 214.765714)scale(0.1 -0.1)">
     <use xlink:href="#SimHei-50"/>
     <use x="50" xlink:href="#SimHei-56"/>
     <use x="100" xlink:href="#SimHei-51"/>
    </g>
   </g>
   <g id="text_18">
    <!-- 82 -->
    <g transform="translate(392.072727 334.458947)scale(0.1 -0.1)">
     <use xlink:href="#SimHei-56"/>
     <use x="50" xlink:href="#SimHei-50"/>
    </g>
   </g>
   <g id="text_19">
    <!-- 78 -->
    <g transform="translate(470.114685 336.840902)scale(0.1 -0.1)">
     <use xlink:href="#SimHei-55"/>
     <use x="50" xlink:href="#SimHei-56"/>
    </g>
   </g>
   <g id="text_20">
    <!-- 28 -->
    <g transform="translate(548.156643 366.615338)scale(0.1 -0.1)">
     <use xlink:href="#SimHei-50"/>
     <use x="50" xlink:href="#SimHei-56"/>
    </g>
   </g>
   <g id="text_21">
    <!-- 4 -->
    <g transform="translate(626.198601 380.907068)scale(0.1 -0.1)">
     <use xlink:href="#SimHei-52"/>
    </g>
   </g>
   <g id="text_22">
    <!-- 2 -->
    <g transform="translate(704.240559 382.098045)scale(0.1 -0.1)">
     <use xlink:href="#SimHei-50"/>
    </g>
   </g>
   <g id="text_23">
    <!-- python.xlsx工作经验要求柱状图 -->
    <g transform="translate(355.8 45.84)scale(0.12 -0.12)">
     <defs>
      <path d="M 44.140625 23.828125 
Q 44.140625 12.5 38.671875 6.640625 
Q 33.203125 0.78125 25.390625 0.78125 
Q 21.09375 0.78125 17.96875 2.53125 
Q 14.84375 4.296875 12.5 7.8125 
L 12.5 -12.5 
L 4.6875 -12.5 
L 4.6875 45.703125 
L 12.5 45.703125 
L 12.5 39.84375 
Q 14.84375 43.359375 17.96875 44.921875 
Q 21.09375 46.484375 25.390625 46.484375 
Q 33.203125 46.484375 38.671875 40.8125 
Q 44.140625 35.15625 44.140625 23.828125 
z
M 35.546875 23.828125 
Q 35.546875 31.25 32.609375 35.34375 
Q 29.6875 39.453125 23.828125 39.453125 
Q 19.140625 39.453125 15.8125 35.34375 
Q 12.5 31.25 12.5 23.828125 
Q 12.5 16.40625 15.8125 12.109375 
Q 19.140625 7.8125 23.828125 7.8125 
Q 29.6875 7.8125 32.609375 12.109375 
Q 35.546875 16.40625 35.546875 23.828125 
z
" id="SimHei-112"/>
      <path d="M 45.3125 45.703125 
L 27.34375 -1.5625 
Q 25.78125 -7.03125 22.65625 -9.765625 
Q 19.53125 -12.5 14.84375 -12.5 
Q 12.890625 -12.5 11.125 -12.296875 
Q 9.375 -12.109375 7.8125 -11.328125 
L 7.8125 -3.515625 
Q 9.375 -4.296875 10.9375 -4.6875 
Q 12.5 -5.078125 13.671875 -5.078125 
Q 16.796875 -5.078125 17.96875 -4.09375 
Q 19.140625 -3.125 20.3125 0.390625 
L 3.125 45.703125 
L 11.71875 45.703125 
L 24.21875 11.328125 
L 24.609375 11.328125 
L 36.71875 45.703125 
z
" id="SimHei-121"/>
      <path d="M 42.96875 3.125 
Q 41.015625 2.34375 38.46875 1.75 
Q 35.9375 1.171875 31.640625 1.171875 
Q 24.609375 1.171875 20.3125 5.078125 
Q 16.015625 8.984375 16.015625 16.015625 
L 16.015625 39.453125 
L 2.734375 39.453125 
L 2.734375 45.703125 
L 16.015625 45.703125 
L 16.015625 60.9375 
L 23.828125 60.9375 
L 23.828125 45.703125 
L 39.84375 45.703125 
L 39.84375 39.453125 
L 23.828125 39.453125 
L 23.828125 15.625 
Q 23.828125 12.5 25.390625 10.34375 
Q 26.953125 8.203125 31.25 8.203125 
Q 35.546875 8.203125 38.28125 8.984375 
Q 41.015625 9.765625 42.96875 10.9375 
z
" id="SimHei-116"/>
      <path d="M 43.75 1.953125 
L 35.9375 1.953125 
L 35.9375 30.078125 
Q 35.9375 34.765625 33.59375 37.5 
Q 31.25 40.234375 27.34375 40.234375 
Q 22.265625 40.234375 17.765625 34.953125 
Q 13.28125 29.6875 13.28125 21.875 
L 13.28125 1.953125 
L 5.46875 1.953125 
L 5.46875 68.75 
L 13.28125 68.75 
L 13.28125 37.5 
Q 16.40625 41.796875 20.109375 44.140625 
Q 23.828125 46.484375 29.6875 46.484375 
Q 36.71875 46.484375 40.234375 42.578125 
Q 43.75 38.671875 43.75 32.8125 
z
" id="SimHei-104"/>
      <path d="M 45.703125 23.828125 
Q 45.703125 13.671875 39.453125 7.421875 
Q 33.203125 1.171875 24.609375 1.171875 
Q 16.015625 1.171875 9.765625 7.421875 
Q 3.515625 13.671875 3.515625 23.828125 
Q 3.515625 33.984375 9.765625 40.234375 
Q 16.015625 46.484375 24.609375 46.484375 
Q 33.203125 46.484375 39.453125 40.234375 
Q 45.703125 33.984375 45.703125 23.828125 
z
M 37.109375 23.828125 
Q 37.109375 31.640625 33.203125 35.546875 
Q 29.296875 39.453125 24.609375 39.453125 
Q 19.921875 39.453125 16.015625 35.546875 
Q 12.109375 31.640625 12.109375 23.828125 
Q 12.109375 16.015625 16.015625 12.109375 
Q 19.921875 8.203125 24.609375 8.203125 
Q 29.296875 8.203125 33.203125 12.109375 
Q 37.109375 16.015625 37.109375 23.828125 
z
" id="SimHei-111"/>
      <path d="M 43.75 1.953125 
L 35.9375 1.953125 
L 35.9375 30.078125 
Q 35.9375 34.765625 33.59375 37.5 
Q 31.25 40.234375 27.34375 40.234375 
Q 22.265625 40.234375 17.765625 34.953125 
Q 13.28125 29.6875 13.28125 21.875 
L 13.28125 1.953125 
L 5.46875 1.953125 
L 5.46875 45.703125 
L 13.28125 45.703125 
L 13.28125 37.5 
Q 16.40625 41.796875 20.109375 44.140625 
Q 23.828125 46.484375 29.6875 46.484375 
Q 36.71875 46.484375 40.234375 42.578125 
Q 43.75 38.671875 43.75 32.8125 
z
" id="SimHei-110"/>
      <path d="M 16.796875 1.953125 
L 7.8125 1.953125 
L 7.8125 10.546875 
L 16.796875 10.546875 
z
" id="SimHei-46"/>
      <path d="M 44.921875 1.953125 
L 35.546875 1.953125 
L 24.21875 18.75 
L 12.890625 1.953125 
L 3.515625 1.953125 
L 19.53125 24.21875 
L 4.6875 45.703125 
L 14.0625 45.703125 
L 24.21875 29.296875 
L 34.375 45.703125 
L 43.75 45.703125 
L 28.90625 24.21875 
z
" id="SimHei-120"/>
      <path d="M 28.515625 1.953125 
L 20.703125 1.953125 
L 20.703125 68.75 
L 28.515625 68.75 
z
" id="SimHei-108"/>
      <path d="M 42.96875 14.0625 
Q 42.96875 7.8125 38.078125 4.484375 
Q 33.203125 1.171875 25.78125 1.171875 
Q 16.40625 1.171875 11.328125 4.875 
Q 6.25 8.59375 6.25 15.625 
L 14.0625 15.625 
Q 14.0625 10.9375 17.375 9.375 
Q 20.703125 7.8125 25.390625 7.8125 
Q 30.078125 7.8125 32.421875 9.5625 
Q 34.765625 11.328125 34.765625 14.0625 
Q 34.765625 16.015625 32.8125 17.96875 
Q 30.859375 19.921875 23.046875 21.09375 
Q 14.0625 22.265625 10.734375 25.578125 
Q 7.421875 28.90625 7.421875 34.375 
Q 7.421875 39.0625 11.90625 42.765625 
Q 16.40625 46.484375 25 46.484375 
Q 32.8125 46.484375 37.296875 42.96875 
Q 41.796875 39.453125 41.796875 33.59375 
L 33.984375 33.59375 
Q 33.984375 37.109375 31.4375 38.46875 
Q 28.90625 39.84375 25 39.84375 
Q 19.921875 39.84375 17.765625 38.078125 
Q 15.625 36.328125 15.625 33.984375 
Q 15.625 31.25 17.578125 29.6875 
Q 19.53125 28.125 25.78125 27.34375 
Q 35.9375 25.78125 39.453125 22.453125 
Q 42.96875 19.140625 42.96875 14.0625 
z
" id="SimHei-115"/>
      <path d="M 69.921875 73.046875 
Q 79.296875 73.046875 87.109375 73.4375 
L 87.109375 65.625 
Q 79.296875 66.015625 69.921875 66.015625 
L 53.90625 66.015625 
L 53.90625 4.296875 
L 79.296875 4.296875 
Q 88.28125 4.296875 95.703125 4.6875 
L 95.703125 -3.125 
Q 88.28125 -2.734375 79.6875 -2.734375 
L 19.140625 -2.734375 
Q 10.546875 -2.734375 4.296875 -3.125 
L 4.296875 4.6875 
Q 10.9375 4.296875 19.53125 4.296875 
L 45.3125 4.296875 
L 45.3125 66.015625 
L 29.6875 66.015625 
Q 19.53125 66.015625 12.109375 65.625 
L 12.109375 73.4375 
Q 19.53125 73.046875 29.6875 73.046875 
z
" id="SimHei-24037"/>
      <path d="M 63.671875 78.90625 
Q 59.765625 75.78125 55.078125 64.0625 
L 80.859375 64.0625 
Q 89.453125 64.0625 94.53125 64.453125 
L 94.53125 57.421875 
Q 89.453125 57.8125 80.859375 57.8125 
L 62.890625 57.8125 
L 62.890625 42.578125 
L 78.90625 42.578125 
Q 85.546875 42.578125 89.84375 42.96875 
L 89.84375 35.546875 
Q 84.765625 35.9375 78.90625 35.9375 
L 62.890625 35.9375 
L 62.890625 18.359375 
L 79.6875 18.359375 
Q 87.5 18.359375 92.578125 18.75 
L 92.578125 11.328125 
Q 87.5 11.71875 80.078125 11.71875 
L 62.890625 11.71875 
L 62.890625 4.296875 
Q 62.890625 -6.640625 63.28125 -10.546875 
L 55.078125 -10.546875 
Q 55.46875 -6.25 55.46875 1.171875 
L 55.46875 57.8125 
L 51.5625 57.8125 
Q 45.703125 47.65625 40.234375 40.234375 
Q 35.9375 44.140625 32.8125 45.3125 
Q 38.28125 50.78125 44.140625 60.9375 
Q 50 71.09375 53.515625 82.8125 
Q 59.375 80.078125 63.671875 78.90625 
z
M 36.328125 77.34375 
Q 32.8125 74.609375 27.34375 60.546875 
L 27.34375 10.546875 
Q 27.34375 -1.953125 27.734375 -9.375 
L 18.75 -9.375 
Q 19.140625 -2.34375 19.140625 10.15625 
L 19.140625 46.875 
Q 13.671875 37.890625 8.59375 31.640625 
Q 5.46875 36.328125 3.125 38.28125 
Q 8.203125 43.75 15.421875 56.4375 
Q 22.65625 69.140625 26.171875 82.421875 
Q 30.46875 79.6875 36.328125 77.34375 
z
" id="SimHei-20316"/>
      <path d="M 79.6875 78.125 
Q 85.546875 78.125 92.96875 78.515625 
L 92.96875 71.875 
Q 85.546875 72.265625 79.6875 72.265625 
L 64.0625 72.265625 
L 64.0625 62.109375 
L 85.9375 62.109375 
Q 85.546875 55.46875 85.546875 49.609375 
Q 85.546875 43.75 85.9375 37.5 
L 44.53125 37.5 
Q 48.828125 34.765625 51.171875 33.203125 
Q 47.65625 30.859375 46.09375 28.90625 
L 82.8125 28.90625 
Q 89.0625 28.90625 96.09375 29.6875 
L 96.09375 22.265625 
Q 89.0625 22.65625 82.421875 22.65625 
L 71.09375 22.65625 
Q 67.1875 16.015625 60.546875 8.203125 
Q 78.125 3.515625 93.75 -1.953125 
Q 89.84375 -4.6875 87.5 -8.59375 
Q 72.65625 -1.953125 54.6875 3.125 
Q 49.21875 -0.78125 40.8125 -3.90625 
Q 32.421875 -7.03125 24.796875 -8.203125 
Q 17.1875 -9.375 10.9375 -10.15625 
Q 9.765625 -5.078125 5.859375 -1.953125 
Q 13.28125 -2.34375 21.484375 -1.5625 
Q 29.6875 -0.78125 36.328125 1.359375 
Q 42.96875 3.515625 46.875 5.859375 
Q 33.984375 8.984375 21.484375 11.328125 
Q 27.34375 17.1875 32.421875 22.65625 
L 16.015625 22.65625 
Q 9.375 22.65625 3.125 22.265625 
L 3.125 29.296875 
Q 10.9375 28.90625 16.015625 28.90625 
L 36.71875 28.90625 
Q 40.625 33.59375 42.96875 37.5 
L 14.0625 37.5 
Q 14.453125 43.75 14.453125 49.609375 
Q 14.453125 55.46875 14.0625 62.109375 
L 35.546875 62.109375 
L 35.546875 72.265625 
L 20.3125 72.265625 
Q 13.671875 72.265625 6.25 71.875 
L 6.25 78.515625 
Q 13.671875 78.125 19.921875 78.125 
z
M 34.765625 15.234375 
Q 41.015625 14.0625 53.125 10.546875 
Q 57.8125 15.234375 62.890625 22.65625 
L 41.796875 22.65625 
Q 38.28125 19.140625 34.765625 15.234375 
z
M 57.03125 43.359375 
L 57.03125 55.859375 
L 42.96875 55.859375 
L 42.96875 43.359375 
z
M 78.125 43.359375 
L 78.125 55.859375 
L 64.0625 55.859375 
L 64.0625 43.359375 
z
M 35.546875 43.359375 
L 35.546875 55.859375 
L 21.875 55.859375 
L 21.875 43.359375 
z
M 57.03125 62.109375 
L 57.03125 72.265625 
L 42.96875 72.265625 
L 42.96875 62.109375 
z
" id="SimHei-35201"/>
      <path d="M 7.421875 62.890625 
Q 13.671875 62.5 20.703125 62.5 
L 44.921875 62.5 
Q 44.921875 73.828125 44.53125 80.078125 
L 53.125 80.078125 
Q 52.734375 73.828125 52.734375 62.5 
L 80.46875 62.5 
Q 85.9375 62.5 92.578125 62.890625 
L 92.578125 55.859375 
Q 85.546875 56.25 80.46875 56.25 
L 52.734375 56.25 
Q 53.125 50 56.4375 42.96875 
Q 59.765625 35.9375 63.28125 31.25 
Q 71.875 38.28125 79.296875 49.21875 
Q 82.03125 46.09375 87.109375 42.96875 
Q 82.421875 40.625 66.40625 25.78125 
Q 71.484375 19.140625 78.703125 13.28125 
Q 85.9375 7.421875 94.53125 5.078125 
Q 89.0625 1.953125 86.71875 -2.34375 
Q 78.125 2.34375 69.328125 10.734375 
Q 60.546875 19.140625 52.734375 37.109375 
L 52.734375 2.34375 
Q 53.125 -3.515625 49.015625 -5.46875 
Q 44.921875 -7.421875 37.109375 -8.203125 
Q 36.328125 -4.296875 33.59375 0.390625 
Q 40.234375 0 42.765625 0.578125 
Q 45.3125 1.171875 44.921875 4.6875 
L 44.921875 26.171875 
Q 29.296875 14.0625 22.453125 8.59375 
Q 15.625 3.125 11.328125 -0.78125 
Q 7.8125 3.125 4.6875 6.25 
Q 10.15625 8.984375 18.75 14.640625 
Q 27.34375 20.3125 44.921875 35.15625 
L 44.921875 56.25 
L 20.703125 56.25 
Q 13.671875 56.25 7.421875 55.859375 
z
M 19.140625 49.609375 
Q 27.734375 42.578125 35.15625 36.328125 
L 28.515625 30.46875 
Q 22.65625 37.109375 12.890625 44.140625 
L 19.140625 49.609375 
z
M 70.3125 79.6875 
Q 76.5625 75.390625 82.8125 69.140625 
Q 80.078125 67.1875 76.953125 64.0625 
Q 72.65625 68.75 64.453125 75.390625 
Q 66.796875 77.34375 70.3125 79.6875 
z
" id="SimHei-27714"/>
      <path d="M 80.078125 63.28125 
Q 86.71875 63.28125 92.96875 63.671875 
L 92.96875 56.640625 
Q 87.109375 57.03125 80.078125 57.03125 
L 71.875 57.03125 
L 71.875 36.328125 
L 78.515625 36.328125 
Q 84.765625 36.328125 90.625 36.71875 
L 90.625 29.6875 
Q 84.765625 30.078125 78.515625 30.078125 
L 71.875 30.078125 
L 71.875 2.734375 
L 81.25 2.734375 
Q 89.453125 2.734375 95.3125 3.125 
L 95.3125 -3.90625 
Q 89.453125 -3.515625 81.25 -3.515625 
L 54.296875 -3.515625 
Q 46.09375 -3.515625 39.84375 -3.90625 
L 39.84375 3.125 
Q 46.09375 2.734375 54.6875 2.734375 
L 64.453125 2.734375 
L 64.453125 30.078125 
L 60.546875 30.078125 
Q 52.734375 30.078125 47.65625 29.6875 
L 47.65625 36.71875 
Q 52.734375 36.328125 60.546875 36.328125 
L 64.453125 36.328125 
L 64.453125 57.03125 
L 58.59375 57.03125 
Q 50.390625 57.03125 44.53125 56.640625 
L 44.53125 63.671875 
Q 50.390625 63.28125 58.59375 63.28125 
z
M 34.375 44.140625 
Q 37.109375 39.453125 43.359375 28.515625 
Q 39.453125 26.171875 35.9375 23.828125 
Q 33.984375 28.515625 28.515625 39.0625 
L 28.515625 7.8125 
Q 28.515625 -0.390625 28.90625 -8.59375 
L 20.3125 -8.59375 
Q 20.703125 0 20.703125 7.8125 
L 20.703125 35.15625 
Q 16.40625 24.21875 8.59375 12.5 
Q 4.296875 19.921875 3.125 21.09375 
Q 8.984375 27.734375 11.515625 32.21875 
Q 14.0625 36.71875 16.203125 41.984375 
Q 18.359375 47.265625 19.53125 53.515625 
Q 12.890625 53.515625 5.859375 53.125 
L 5.859375 60.15625 
Q 12.890625 59.765625 20.703125 59.765625 
L 20.703125 69.140625 
Q 20.3125 75 20.3125 80.078125 
L 28.90625 80.078125 
Q 28.515625 75.390625 28.515625 69.140625 
L 28.515625 59.765625 
Q 34.375 59.765625 41.015625 60.15625 
L 41.015625 53.125 
Q 34.375 53.515625 28.515625 53.515625 
L 28.515625 40.234375 
L 34.375 44.140625 
z
M 69.140625 80.859375 
Q 70.3125 78.125 71.484375 75.1875 
Q 72.65625 72.265625 73.828125 68.75 
Q 69.53125 67.578125 65.625 66.40625 
Q 64.453125 69.53125 63.28125 72.84375 
Q 62.109375 76.171875 60.9375 78.515625 
Q 64.84375 80.078125 69.140625 80.859375 
z
" id="SimHei-26609"/>
      <path d="M 34.765625 -4.296875 
Q 41.796875 0.390625 46.484375 7.421875 
Q 51.171875 14.453125 53.90625 21.09375 
Q 56.640625 27.734375 57.8125 33.984375 
Q 58.984375 40.234375 59.375 44.921875 
L 50.390625 44.921875 
Q 44.53125 44.921875 39.0625 44.53125 
L 39.0625 51.953125 
Q 44.53125 51.5625 50 51.5625 
L 59.765625 51.5625 
Q 59.765625 62.109375 59.5625 68.359375 
Q 59.375 74.609375 58.984375 79.296875 
L 69.140625 79.296875 
Q 67.96875 74.21875 67.765625 68.9375 
Q 67.578125 63.671875 67.578125 51.5625 
L 83.59375 51.5625 
Q 87.890625 51.5625 93.359375 51.953125 
L 93.359375 44.53125 
Q 87.890625 44.921875 83.59375 44.921875 
L 68.359375 44.921875 
Q 73.046875 22.65625 78.3125 15.03125 
Q 83.59375 7.421875 87.890625 4.09375 
Q 92.1875 0.78125 95.703125 -1.171875 
Q 90.234375 -3.515625 87.890625 -8.203125 
Q 81.640625 -3.125 77.921875 1.75 
Q 74.21875 6.640625 71.671875 11.328125 
Q 69.140625 16.015625 67.375 20.890625 
Q 65.625 25.78125 64.453125 31.25 
Q 62.5 21.875 59.5625 15.234375 
Q 56.640625 8.59375 53.515625 3.703125 
Q 50.390625 -1.171875 42.96875 -9.765625 
Q 39.453125 -6.25 34.765625 -4.296875 
z
M 34.765625 81.25 
Q 34.375 75.390625 34.375 66.40625 
L 34.375 12.109375 
Q 34.375 0.78125 34.765625 -9.765625 
L 26.171875 -9.765625 
Q 26.5625 1.171875 26.5625 12.109375 
L 26.5625 30.46875 
Q 23.828125 27.34375 18.75 21.09375 
Q 13.671875 14.84375 10.9375 11.71875 
Q 7.8125 15.625 4.296875 17.96875 
Q 8.984375 21.484375 14.25 26.75 
Q 19.53125 32.03125 26.5625 40.625 
L 26.5625 66.40625 
Q 26.5625 75.390625 26.171875 81.25 
L 34.765625 81.25 
z
M 9.765625 67.578125 
Q 12.5 64.453125 15.625 60.546875 
Q 18.75 56.640625 21.484375 52.734375 
Q 18.359375 50.390625 16.40625 48.046875 
Q 13.28125 52.34375 3.90625 63.28125 
Q 6.25 65.234375 9.765625 67.578125 
z
M 85.546875 57.03125 
Q 82.03125 62.109375 73.4375 69.921875 
Q 76.5625 72.265625 78.515625 74.21875 
Q 82.03125 71.484375 84.765625 68.546875 
Q 87.5 65.625 91.015625 62.109375 
Q 87.890625 59.375 85.546875 57.03125 
z
" id="SimHei-29366"/>
      <path d="M 90.625 77.734375 
Q 90.234375 67.96875 90.234375 56.25 
L 90.234375 14.453125 
Q 90.234375 2.34375 90.625 -9.375 
L 82.8125 -9.375 
L 82.8125 -4.296875 
L 17.578125 -4.296875 
L 17.578125 -10.15625 
L 9.765625 -10.15625 
Q 10.15625 1.953125 10.15625 14.84375 
L 10.15625 56.25 
Q 10.15625 67.578125 9.765625 77.734375 
L 90.625 77.734375 
z
M 82.8125 2.34375 
L 82.8125 71.484375 
L 17.578125 71.484375 
L 17.578125 2.34375 
z
M 50.390625 66.40625 
Q 48.046875 64.0625 46.09375 61.328125 
L 72.265625 61.328125 
Q 70.703125 57.8125 67.1875 52.734375 
Q 63.671875 47.65625 56.25 40.625 
Q 67.96875 34.765625 79.296875 33.59375 
Q 76.5625 30.078125 74.609375 26.171875 
Q 60.15625 30.46875 50.390625 36.71875 
Q 39.0625 29.296875 26.171875 25.78125 
Q 25 29.296875 21.875 32.421875 
Q 34.375 34.375 44.921875 40.625 
Q 39.453125 45.703125 37.109375 49.21875 
Q 33.59375 45.3125 29.6875 41.40625 
Q 26.953125 44.53125 23.828125 46.09375 
Q 30.46875 51.5625 35.15625 58.390625 
Q 39.84375 65.234375 41.796875 69.921875 
Q 45.703125 67.96875 50.390625 66.40625 
z
M 38.28125 19.921875 
Q 55.46875 14.84375 64.0625 11.328125 
Q 62.109375 8.203125 60.15625 4.6875 
Q 44.140625 11.328125 35.546875 13.28125 
Q 37.109375 16.40625 38.28125 19.921875 
z
M 45.703125 32.03125 
Q 58.984375 26.5625 63.671875 25 
Q 61.71875 21.875 60.15625 17.96875 
Q 46.875 24.21875 42.1875 25.78125 
Q 44.140625 28.515625 45.703125 32.03125 
z
M 41.015625 53.90625 
Q 46.875 47.265625 51.171875 44.53125 
Q 56.25 48.4375 60.546875 55.078125 
L 41.796875 55.078125 
L 41.015625 53.90625 
z
" id="SimHei-22270"/>
     </defs>
     <use xlink:href="#SimHei-112"/>
     <use x="50" xlink:href="#SimHei-121"/>
     <use x="100" xlink:href="#SimHei-116"/>
     <use x="150" xlink:href="#SimHei-104"/>
     <use x="200" xlink:href="#SimHei-111"/>
     <use x="250" xlink:href="#SimHei-110"/>
     <use x="300" xlink:href="#SimHei-46"/>
     <use x="350" xlink:href="#SimHei-120"/>
     <use x="400" xlink:href="#SimHei-108"/>
     <use x="450" xlink:href="#SimHei-115"/>
     <use x="500" xlink:href="#SimHei-120"/>
     <use x="550" xlink:href="#SimHei-24037"/>
     <use x="650" xlink:href="#SimHei-20316"/>
     <use x="750" xlink:href="#SimHei-32463"/>
     <use x="850" xlink:href="#SimHei-39564"/>
     <use x="950" xlink:href="#SimHei-35201"/>
     <use x="1050" xlink:href="#SimHei-27714"/>
     <use x="1150" xlink:href="#SimHei-26609"/>
     <use x="1250" xlink:href="#SimHei-29366"/>
     <use x="1350" xlink:href="#SimHei-22270"/>
    </g>
   </g>
  </g>
 </g>
 <defs>
  <clipPath id="paa1f0fd1d0">
   <rect height="332.64" width="669.6" x="108" y="51.84"/>
  </clipPath>
 </defs>
</svg>
